<?xml version="1.0" standalone="no"?>
<!DOCTYPE svg PUBLIC "-//W3C//DTD SVG 20010904//EN"
 "http://www.w3.org/TR/2001/REC-SVG-20010904/DTD/svg10.dtd">
<svg version="1.0" xmlns="http://www.w3.org/2000/svg"
 width="1920.000000pt" height="1920.000000pt" viewBox="0 0 1920.000000 1920.000000"
 preserveAspectRatio="xMidYMid meet">
<metadata>
Created by potrace 1.11, written by Peter Selinger 2001-2013
</metadata>
<g transform="translate(0.000000,1920.000000) scale(0.100000,-0.100000)"
fill="#000000" stroke="none">
<path d="M8905 19174 c-16 -2 -86 -9 -155 -15 -937 -81 -1880 -309 -2778 -673
-479 -194 -1128 -532 -1532 -798 -144 -95 -165 -112 -321 -260 -106 -100 -144
-129 -226 -173 -260 -137 -294 -161 -579 -409 -963 -835 -1752 -1855 -2314
-2991 -145 -294 -197 -408 -288 -630 -88 -216 -108 -288 -161 -585 -15 -86
-29 -125 -74 -216 -93 -186 -132 -283 -170 -424 -111 -412 -211 -982 -261
-1490 -13 -130 -17 -187 -31 -420 -5 -87 -5 -882 0 -995 11 -247 48 -611 91
-895 14 -91 27 -183 30 -205 12 -94 109 -555 154 -730 49 -195 91 -306 193
-510 32 -65 57 -131 61 -160 12 -82 64 -336 82 -395 50 -167 199 -508 390
-890 468 -936 1060 -1756 1804 -2500 241 -241 580 -546 753 -678 77 -59 188
-126 327 -197 81 -41 114 -67 228 -176 73 -70 151 -141 175 -159 152 -115 575
-366 897 -533 832 -431 1723 -737 2660 -911 545 -101 1259 -166 1460 -134 219
36 285 41 370 29 231 -34 338 -42 470 -36 292 13 589 46 1060 119 705 109
1616 387 2310 703 617 281 1268 659 1475 855 50 47 116 110 147 139 35 33 96
75 160 108 238 124 304 170 584 414 499 433 873 831 1345 1432 30 39 88 117
129 175 41 58 97 137 125 175 86 116 301 457 433 685 201 349 426 807 560
1141 96 240 107 277 147 497 34 185 37 197 99 325 77 159 118 255 139 322 48
150 171 712 192 875 3 25 10 68 15 95 43 228 97 737 107 1015 10 261 10 758 0
1010 -22 571 -132 1300 -283 1873 -44 166 -84 268 -185 468 -44 88 -52 115
-74 247 -46 268 -75 358 -215 687 -169 395 -482 993 -674 1288 -29 45 -86 133
-126 196 -102 160 -354 509 -495 686 -367 461 -824 940 -1236 1295 -302 260
-332 281 -612 429 -62 32 -109 70 -220 177 -109 104 -176 158 -287 232 -410
272 -1103 632 -1580 822 -575 229 -1118 391 -1705 509 -137 27 -268 52 -290
55 -22 3 -114 16 -205 30 -567 85 -966 104 -1240 60 -138 -23 -167 -22 -349 4
-143 20 -395 28 -506 16z m-341 -178 c144 -84 129 -344 -35 -612 l-19 -32 32
-38 c154 -187 505 -388 813 -467 187 -48 242 -53 352 -33 278 52 548 167 758
324 105 78 225 189 225 207 0 7 -18 44 -39 82 -46 79 -85 182 -102 270 -35
185 46 323 191 323 102 0 166 -35 201 -109 54 -115 3 -314 -127 -497 -24 -34
-44 -66 -44 -72 0 -6 23 -38 50 -71 290 -348 731 -571 1260 -636 118 -15 142
-21 190 -50 30 -18 93 -51 140 -75 47 -23 93 -46 103 -51 66 -35 305 -113 428
-139 261 -55 599 -48 807 17 51 16 52 17 53 57 4 235 49 392 142 488 87 90
239 72 324 -38 24 -32 28 -46 28 -103 0 -83 -26 -138 -99 -213 -66 -67 -138
-115 -251 -170 l-86 -41 7 -56 c7 -58 45 -217 69 -286 83 -241 224 -468 420
-674 59 -62 84 -80 165 -118 132 -62 302 -119 445 -149 200 -43 612 -41 656 3
6 6 15 46 20 89 38 331 216 530 396 443 52 -25 106 -86 121 -136 43 -147 -125
-325 -388 -413 -93 -31 -93 -31 -86 -120 32 -383 171 -708 447 -1046 31 -38
113 -124 183 -191 69 -68 126 -127 126 -133 0 -8 80 -173 134 -277 16 -31 70
-112 154 -233 102 -145 365 -387 507 -466 147 -82 284 -144 318 -144 8 0 32
26 55 58 68 97 190 206 278 248 68 32 84 36 139 32 85 -5 134 -38 170 -113 24
-49 27 -64 22 -123 -5 -66 -6 -68 -59 -117 -62 -57 -125 -80 -248 -90 -67 -6
-192 7 -303 31 -26 6 -29 3 -76 -97 -63 -132 -104 -257 -133 -401 -19 -98 -23
-144 -23 -343 0 -301 7 -339 91 -487 35 -62 94 -153 131 -203 96 -131 297
-327 418 -407 102 -68 213 -128 237 -128 7 0 56 42 109 93 167 164 308 224
439 187 74 -20 130 -108 130 -204 0 -69 -10 -95 -54 -139 -92 -93 -300 -107
-520 -36 -33 10 -65 19 -73 19 -13 0 -45 -45 -95 -135 -25 -43 -40 -75 -88
-180 -44 -95 -95 -289 -116 -440 -31 -225 -10 -588 46 -796 7 -26 8 -51 1 -76
-5 -21 -20 -94 -33 -163 -20 -109 -23 -156 -23 -370 1 -191 5 -266 18 -340 42
-221 108 -403 213 -581 64 -110 66 -111 139 -88 274 90 520 49 574 -94 31 -81
-4 -208 -70 -256 -41 -31 -136 -43 -202 -25 -97 25 -247 129 -333 230 -26 30
-52 54 -59 54 -6 0 -43 -16 -81 -37 -250 -132 -462 -327 -628 -578 -162 -244
-171 -278 -171 -620 1 -247 14 -345 69 -516 46 -143 120 -307 142 -316 8 -3
53 3 101 12 67 13 117 16 208 12 135 -6 185 -21 254 -75 57 -46 75 -89 68
-170 -6 -75 -37 -128 -99 -169 -121 -81 -333 21 -498 237 -34 44 -63 80 -65
80 -8 0 -89 -32 -145 -57 -202 -91 -386 -225 -549 -400 -50 -54 -107 -121
-126 -148 -125 -177 -215 -331 -276 -475 -23 -54 -43 -85 -73 -110 -289 -245
-533 -606 -632 -935 -39 -127 -70 -313 -70 -405 l1 -55 85 -30 c126 -46 220
-99 287 -163 85 -81 111 -140 104 -238 -2 -35 -61 -113 -105 -139 -67 -39
-122 -42 -185 -10 -91 46 -142 115 -190 262 -16 48 -34 128 -40 177 -6 50 -14
93 -18 96 -18 16 -198 34 -328 33 -268 -1 -517 -61 -791 -189 -81 -38 -99 -51
-169 -128 -213 -234 -363 -501 -434 -771 -20 -78 -41 -186 -41 -212 0 -7 46
-36 103 -64 253 -128 375 -289 327 -434 -24 -73 -129 -145 -212 -145 -42 0
-114 37 -149 78 -72 82 -115 221 -125 405 -3 56 -7 104 -10 108 -11 18 -231
60 -352 68 -398 26 -779 -71 -1172 -299 -51 -29 -80 -39 -135 -44 -522 -53
-958 -254 -1266 -585 -114 -122 -113 -117 -50 -207 195 -279 191 -541 -9 -594
-101 -27 -195 12 -237 99 -56 114 -36 260 62 456 30 61 55 113 55 117 0 13
-124 129 -200 188 -212 162 -468 275 -762 336 -115 24 -120 24 -207 9 -357
-62 -696 -228 -939 -459 -78 -75 -78 -74 -32 -154 112 -193 142 -380 81 -499
-52 -103 -194 -133 -303 -64 -136 87 -110 328 63 574 l49 70 -19 26 c-54 76
-202 224 -297 296 -191 146 -464 272 -724 335 -92 22 -327 60 -373 60 -16 0
-65 22 -110 48 -364 215 -764 317 -1142 292 -131 -9 -165 -14 -270 -40 -111
-29 -101 -16 -108 -153 -9 -185 -47 -302 -124 -388 -72 -80 -148 -98 -238 -55
-145 68 -172 206 -68 345 58 78 153 150 276 209 l98 47 -6 60 c-31 315 -245
728 -512 987 -100 98 -389 207 -668 254 -175 29 -546 16 -573 -20 -5 -6 -14
-52 -20 -103 -27 -210 -111 -371 -224 -427 -28 -14 -64 -26 -78 -26 -73 0
-165 62 -200 136 -74 152 95 348 379 439 l84 27 -7 112 c-12 208 -65 396 -177
623 -107 217 -239 393 -442 590 -108 104 -130 130 -153 185 -148 354 -431 704
-729 900 -106 70 -331 178 -370 178 -2 0 -24 -29 -49 -64 -25 -35 -79 -95
-121 -134 -108 -103 -190 -143 -293 -144 -55 0 -70 4 -105 28 -72 51 -114 168
-88 247 17 49 75 105 140 134 79 35 264 44 386 18 46 -9 91 -15 99 -12 18 7
69 107 114 222 93 239 129 573 93 865 -12 94 -18 115 -63 200 -167 316 -429
582 -730 744 -37 20 -71 36 -76 36 -5 0 -51 -42 -103 -93 -135 -135 -257 -200
-368 -199 -77 2 -116 18 -154 63 -87 101 -72 244 34 315 104 69 297 71 499 5
35 -12 64 -21 66 -21 10 0 101 154 142 240 173 365 213 776 121 1246 l-22 111
27 139 c74 391 55 722 -60 1063 -14 40 -37 99 -52 130 -36 76 -131 237 -148
252 -11 9 -27 8 -72 -6 -178 -53 -343 -63 -441 -26 -128 48 -179 157 -132 282
76 200 325 166 568 -78 46 -46 89 -83 97 -83 31 0 192 95 306 181 148 111 283
256 397 429 124 186 149 240 164 360 44 356 -11 723 -151 1004 -52 103 -38 97
-175 73 -162 -30 -340 -7 -425 53 -105 74 -118 210 -32 311 43 50 85 69 149
69 122 -1 271 -100 394 -261 33 -44 64 -79 68 -79 15 0 75 22 139 51 35 16 65
29 67 29 6 0 151 85 178 105 306 219 509 467 685 835 36 74 68 137 72 140 75
49 293 285 396 430 204 286 325 614 328 889 l1 103 -91 32 c-224 78 -384 227
-384 357 0 72 51 147 124 184 88 44 175 26 250 -51 73 -75 137 -243 151 -397
4 -42 12 -80 19 -84 22 -14 172 -30 300 -32 271 -4 544 59 820 190 72 34 95
51 154 117 206 228 337 444 416 687 32 98 66 256 66 306 0 13 -24 30 -87 60
-197 93 -317 211 -344 339 -19 89 16 160 104 210 130 74 260 13 330 -155 35
-85 48 -153 56 -285 l6 -115 51 -16 c181 -58 521 -72 744 -31 242 45 481 134
708 264 75 43 93 49 175 58 455 51 837 209 1130 465 84 73 177 173 209 223
l18 28 -45 61 c-228 315 -197 612 64 613 50 0 73 -5 105 -24z"/>
<path d="M8371 18953 c-92 -46 -104 -185 -29 -353 34 -78 117 -202 132 -197
17 4 103 185 121 252 35 135 12 253 -58 295 -40 25 -119 26 -166 3z"/>
<path d="M10671 18952 c-77 -39 -100 -180 -52 -326 29 -90 98 -226 114 -226
14 1 84 103 121 177 59 120 74 263 33 324 -29 43 -80 69 -137 69 -25 0 -60 -8
-79 -18z"/>
<path d="M8445 18263 c-32 -49 -167 -182 -260 -257 -242 -195 -505 -313 -875
-394 -25 -6 -103 -18 -174 -27 -108 -15 -138 -23 -180 -48 -324 -191 -721
-307 -1052 -307 -161 0 -366 28 -481 65 -27 8 -25 13 -48 -115 -21 -122 -73
-276 -139 -415 -84 -176 -183 -319 -338 -488 -70 -76 -91 -93 -164 -128 -371
-175 -702 -231 -1095 -184 l-66 7 -6 -108 c-20 -333 -173 -695 -432 -1019 -22
-28 -103 -113 -180 -190 -98 -97 -147 -154 -160 -185 -162 -373 -420 -700
-710 -900 -109 -76 -260 -156 -359 -191 -21 -8 -40 -19 -43 -25 -2 -6 11 -42
30 -80 76 -154 118 -287 153 -484 21 -121 24 -415 5 -560 -12 -93 -18 -115
-63 -199 -175 -332 -464 -629 -755 -775 -40 -20 -73 -38 -73 -40 0 -2 16 -28
36 -58 49 -73 138 -257 168 -348 77 -234 101 -381 100 -635 0 -195 -10 -304
-45 -480 -19 -95 -19 -104 -4 -175 50 -231 66 -515 40 -725 -34 -283 -128
-557 -256 -749 -21 -32 -36 -62 -33 -67 3 -5 33 -23 67 -40 128 -65 255 -156
373 -270 154 -148 249 -270 360 -464 l72 -124 13 -118 c18 -155 16 -442 -5
-555 -35 -199 -73 -322 -142 -465 -24 -51 -44 -97 -44 -102 0 -5 17 -15 37
-21 129 -41 327 -157 485 -283 93 -74 259 -249 324 -342 105 -151 145 -217
211 -350 24 -49 51 -102 59 -117 8 -14 14 -31 14 -38 0 -6 28 -37 62 -68 250
-230 433 -473 548 -726 77 -170 139 -406 147 -564 4 -62 10 -105 17 -108 6 -2
56 2 111 10 90 12 327 14 395 3 14 -2 50 -7 80 -12 172 -23 371 -86 560 -178
90 -44 127 -77 250 -222 203 -242 344 -531 395 -810 10 -55 22 -104 26 -109 5
-5 42 0 91 12 138 36 215 45 398 44 146 0 199 -4 325 -27 254 -46 512 -143
745 -280 46 -27 72 -34 155 -44 408 -45 753 -178 1057 -409 73 -55 213 -193
258 -254 19 -26 39 -48 43 -48 5 0 50 39 100 86 228 213 546 370 891 439 115
23 137 25 200 15 319 -48 637 -185 881 -378 39 -30 75 -60 80 -66 6 -6 32 -31
58 -56 l48 -45 26 35 c85 110 255 264 396 359 248 166 643 300 962 327 44 3
85 10 90 14 6 5 39 24 75 44 471 263 980 353 1408 251 57 -14 107 -25 112 -25
4 0 13 33 20 73 53 333 223 662 487 947 71 77 87 88 188 136 180 85 383 148
545 169 30 4 64 9 75 12 53 12 299 10 398 -4 60 -8 110 -13 112 -11 1 1 6 39
9 83 7 84 29 223 47 290 6 22 13 51 16 65 15 64 100 264 155 364 108 198 205
323 401 518 75 75 137 139 137 142 0 7 115 242 132 271 114 188 202 307 319
430 179 187 392 336 594 415 105 41 100 31 61 108 -121 243 -178 499 -177 802
0 143 2 171 23 305 11 78 60 177 161 330 82 124 132 183 258 306 121 118 253
217 376 281 46 24 83 46 83 50 0 4 -25 48 -55 97 -84 140 -140 272 -189 451
-68 248 -76 619 -21 910 15 80 28 152 27 160 0 8 -10 65 -21 125 -34 174 -41
248 -42 435 0 201 17 350 61 515 48 180 123 353 204 474 20 29 36 57 36 62 0
5 -15 16 -32 25 -333 168 -600 440 -806 816 -48 88 -65 237 -59 493 7 294 55
504 168 729 38 77 41 96 14 96 -33 0 -239 102 -340 169 -313 206 -576 525
-744 906 -30 66 -48 91 -106 145 -415 382 -638 809 -681 1300 -3 41 -8 77 -10
79 -2 3 -46 -1 -97 -8 -102 -13 -268 -16 -379 -6 -301 27 -692 165 -809 287
-279 288 -464 637 -518 977 -6 36 -14 68 -18 72 -4 4 -39 -1 -76 -11 -122 -34
-317 -53 -482 -47 -322 11 -672 116 -970 292 -66 38 -81 43 -205 59 -74 10
-162 24 -195 31 -458 97 -844 317 -1099 628 -22 26 -43 47 -49 47 -5 0 -43
-32 -85 -71 -129 -120 -209 -176 -392 -276 -160 -86 -520 -195 -645 -194 -109
0 -428 89 -581 162 -181 86 -337 191 -474 318 -36 34 -70 61 -76 61 -7 0 -20
-12 -29 -27z m555 -508 c175 -17 328 -39 459 -65 l144 -29 148 30 c389 78 837
94 1244 44 140 -18 343 -55 440 -81 245 -66 358 -104 555 -185 115 -47 215
-79 330 -107 249 -61 386 -106 605 -200 234 -101 400 -191 605 -329 272 -182
388 -279 635 -527 138 -139 202 -197 235 -211 80 -34 292 -142 395 -200 263
-149 544 -363 774 -588 248 -245 443 -491 607 -767 40 -68 105 -158 159 -220
500 -572 821 -1297 915 -2065 21 -165 23 -172 62 -240 233 -397 401 -865 478
-1330 49 -298 63 -664 35 -944 -12 -124 -12 -165 0 -290 25 -254 14 -645 -25
-881 -72 -437 -172 -761 -349 -1124 -43 -89 -101 -200 -129 -249 l-51 -87 -21
-173 c-31 -250 -89 -508 -169 -753 -41 -124 -116 -317 -141 -363 -5 -9 -30
-59 -54 -111 -133 -283 -344 -602 -548 -830 -52 -58 -112 -141 -153 -210 -124
-209 -286 -431 -440 -600 -340 -374 -721 -664 -1160 -882 -71 -36 -156 -75
-188 -88 -44 -18 -70 -38 -110 -84 -81 -94 -252 -263 -367 -362 -473 -406
-1034 -692 -1626 -829 -103 -24 -193 -53 -272 -86 -506 -219 -1054 -322 -1617
-305 -263 7 -448 29 -742 87 -53 11 -74 10 -150 -6 -513 -104 -1023 -112
-1508 -24 -271 50 -575 140 -805 240 -99 43 -176 68 -288 93 -281 65 -523 152
-807 292 -304 150 -501 276 -765 492 -63 52 -199 179 -301 282 -178 180 -190
190 -270 226 -717 322 -1351 880 -1730 1524 -47 81 -107 164 -169 235 -514
588 -835 1325 -924 2123 -13 109 -16 121 -56 186 -108 177 -274 549 -345 776
-153 491 -211 1017 -165 1508 9 93 9 156 1 255 -39 442 -5 865 105 1301 81
325 223 674 393 970 55 95 59 106 66 186 4 47 20 164 36 260 116 692 430 1357
888 1880 57 64 120 151 163 225 390 660 1024 1218 1750 1539 69 31 95 48 130
89 120 142 377 381 553 514 214 161 386 267 635 391 133 66 154 75 275 125
123 51 375 130 535 167 116 28 202 55 290 93 379 164 842 273 1240 294 63 3
117 7 119 9 5 5 370 -5 441 -11z"/>
<path d="M8417 17579 c-426 -36 -871 -149 -1224 -309 -37 -17 -99 -38 -138
-46 -437 -92 -889 -280 -1275 -530 -93 -60 -326 -239 -417 -320 -102 -90 -219
-207 -320 -319 -75 -83 -88 -93 -165 -124 -241 -99 -571 -293 -796 -469 -99
-76 -347 -297 -392 -349 -14 -15 -54 -60 -89 -98 -154 -169 -308 -377 -441
-600 -29 -49 -81 -121 -115 -160 -544 -622 -852 -1334 -930 -2149 -6 -60 -15
-83 -71 -182 -116 -206 -217 -422 -283 -609 -30 -83 -39 -111 -69 -205 -41
-129 -95 -384 -116 -550 -33 -259 -40 -442 -26 -685 17 -280 17 -276 0 -554
-33 -557 65 -1113 288 -1636 62 -146 158 -336 223 -441 42 -69 42 -70 65 -254
48 -385 123 -671 273 -1035 38 -92 196 -394 260 -497 113 -180 274 -395 395
-525 29 -32 61 -74 71 -93 30 -59 173 -280 243 -375 274 -371 614 -687 1017
-943 126 -80 391 -219 510 -267 55 -23 81 -41 120 -84 422 -470 847 -773 1410
-1006 166 -69 471 -162 640 -196 33 -6 78 -20 100 -32 97 -49 394 -154 595
-210 67 -19 328 -72 426 -86 410 -61 924 -37 1336 60 80 19 90 20 140 6 68
-20 246 -52 388 -72 222 -31 712 -31 920 -1 380 55 715 148 1030 286 47 21
119 45 160 54 452 100 884 280 1260 524 244 159 504 384 734 635 75 82 98 100
145 117 84 32 331 157 461 235 190 113 398 265 551 401 161 143 376 378 516
565 60 80 223 329 251 384 11 22 47 69 79 105 67 73 184 221 259 325 308 431
510 903 618 1445 28 138 56 343 56 402 0 30 17 69 73 166 237 414 382 824 457
1292 33 214 43 394 36 665 -4 138 -10 276 -15 308 -4 31 -4 83 1 115 15 115
21 554 9 695 -42 498 -169 948 -394 1392 -33 66 -83 156 -110 200 -49 80 -49
80 -63 215 -74 712 -345 1373 -793 1935 -52 66 -116 143 -142 170 -25 28 -65
84 -89 125 -69 120 -231 356 -327 475 -171 214 -448 479 -672 644 -220 163
-497 322 -751 431 -43 18 -87 45 -103 63 -374 422 -732 698 -1202 926 -246
120 -468 199 -740 265 -171 41 -185 46 -355 116 -312 128 -598 203 -960 251
-133 18 -216 22 -430 23 -322 0 -511 -19 -816 -84 l-101 -22 -119 26 c-329 71
-760 102 -1067 75z m728 -63 c162 -23 280 -44 373 -67 l84 -20 111 25 c299 66
448 81 807 81 354 -1 443 -10 760 -77 230 -49 460 -122 688 -220 57 -24 72
-35 72 -52 0 -11 -45 -115 -100 -231 -56 -115 -192 -402 -303 -637 -111 -235
-208 -430 -215 -433 -7 -2 -50 11 -95 29 -171 71 -370 123 -557 146 -275 34
-580 10 -861 -69 -56 -16 -107 -27 -114 -25 -6 3 -23 39 -37 82 -77 226 -153
431 -159 424 -3 -4 -18 -41 -32 -82 -61 -182 -147 -414 -155 -422 -6 -6 -42 1
-92 16 -339 107 -764 120 -1120 34 -111 -27 -220 -61 -299 -94 -47 -20 -95
-37 -106 -38 -24 -1 -12 -23 -231 439 -91 193 -220 464 -286 604 -91 193 -118
258 -111 270 17 28 346 152 554 211 183 51 458 100 694 124 98 10 625 -3 730
-18z m-2020 -360 c29 -132 255 -1373 253 -1389 -3 -19 -16 -25 -91 -44 -471
-115 -881 -379 -1192 -769 -30 -38 -55 -72 -55 -75 0 -4 -7 -10 -16 -13 -10
-4 -93 47 -236 145 -121 83 -222 149 -224 146 -4 -3 124 -455 141 -498 8 -22
-5 -30 -125 -75 -205 -76 -425 -201 -604 -344 -167 -133 -372 -363 -476 -534
-28 -47 -56 -88 -61 -92 -9 -5 -1249 663 -1273 686 -15 15 13 67 135 250 183
274 353 473 586 686 137 125 427 349 498 384 5 3 53 30 105 61 130 77 285 157
407 209 92 39 108 49 155 104 481 562 1145 968 1893 1156 82 21 155 35 162 33
7 -3 15 -15 18 -27z m5190 -21 c669 -178 1227 -506 1713 -1005 45 -47 104
-111 130 -142 31 -38 59 -62 82 -69 19 -6 103 -44 185 -83 554 -266 983 -618
1363 -1117 60 -78 212 -311 241 -367 19 -37 19 -41 3 -54 -9 -8 -222 -127
-472 -263 -250 -136 -527 -288 -616 -337 -89 -49 -167 -86 -175 -83 -9 3 -31
34 -51 69 -146 253 -455 560 -728 724 -112 67 -279 146 -394 187 -50 18 -92
39 -94 46 -1 8 31 127 72 264 40 138 72 252 71 254 -2 1 -102 -64 -222 -145
-120 -82 -223 -150 -229 -152 -5 -1 -39 35 -74 80 -83 108 -283 308 -386 385
-258 195 -557 339 -826 398 -46 10 -79 23 -82 31 -5 14 249 1398 260 1416 10
16 63 7 229 -37z m-4836 -739 c131 -275 241 -511 245 -523 6 -19 -2 -26 -59
-58 -69 -39 -206 -68 -225 -49 -8 8 -35 145 -176 899 -25 132 -47 251 -50 265
-5 24 -4 24 11 -4 9 -15 124 -254 254 -530z m4422 58 c-49 -264 -97 -522 -107
-574 -9 -52 -21 -101 -27 -109 -30 -36 -287 45 -287 91 0 10 31 82 68 161 37
78 151 316 252 529 101 214 185 386 187 384 2 -2 -36 -219 -86 -482z m-2200
-383 c21 -62 39 -117 39 -122 0 -10 -105 -60 -131 -62 -23 -2 -138 45 -143 59
-4 10 40 138 111 328 l26 69 29 -79 c16 -43 47 -130 69 -193z m-1313 -772
c212 -72 345 -302 302 -521 -50 -255 -287 -418 -540 -372 -36 7 -78 18 -94 25
-23 11 -30 11 -34 1 -9 -28 -97 -125 -135 -150 -78 -49 -104 -61 -182 -77
-254 -52 -503 121 -547 382 -33 200 74 406 257 492 119 57 229 64 350 23 l56
-19 21 31 c97 142 250 221 408 211 41 -2 103 -14 138 -26z m2687 16 c77 -18
113 -34 170 -78 56 -43 88 -76 114 -119 12 -21 23 -38 24 -38 1 0 27 9 57 21
151 57 330 21 455 -93 104 -95 157 -211 156 -341 -1 -241 -165 -431 -402 -467
-170 -25 -349 56 -447 203 -18 27 -30 36 -41 31 -59 -24 -118 -35 -197 -35
-80 -1 -100 3 -168 31 -180 75 -286 237 -288 435 0 87 26 174 76 253 55 87
163 165 265 190 92 24 146 25 226 7z m-5251 -385 c85 -58 155 -111 156 -118 0
-22 -71 -131 -89 -136 -71 -19 -124 -27 -131 -20 -8 8 -94 285 -114 367 -8 35
-21 42 178 -93z m7687 -74 c-31 -107 -59 -198 -63 -201 -4 -4 -40 0 -80 9
l-73 16 -38 63 c-26 40 -36 66 -30 75 8 13 323 232 334 232 3 0 -19 -87 -50
-194z m-10278 -673 c51 -49 284 -269 519 -491 234 -221 429 -409 432 -417 3
-9 -18 -41 -55 -82 -33 -38 -98 -124 -143 -193 -232 -349 -347 -701 -371
-1135 -4 -60 -9 -113 -13 -117 -4 -3 -126 -9 -272 -13 -146 -4 -267 -9 -268
-10 -2 -2 83 -70 189 -152 251 -193 246 -189 234 -206 -261 -361 -403 -758
-425 -1187 -4 -80 -3 -192 1 -250 6 -81 5 -108 -5 -118 -8 -8 -236 -42 -627
-92 -845 -110 -798 -105 -809 -94 -30 30 -38 661 -11 849 39 270 42 286 98
505 84 332 227 673 405 970 43 71 46 80 52 170 8 109 48 365 77 490 124 532
363 1024 714 1465 92 116 164 195 177 195 5 0 51 -39 101 -87z m12898 34 c114
-130 260 -325 351 -467 23 -36 50 -78 60 -93 38 -55 177 -334 229 -457 149
-356 232 -695 274 -1120 5 -54 15 -79 57 -150 266 -443 435 -953 495 -1485 28
-253 18 -784 -16 -818 -7 -7 -206 15 -693 77 -376 49 -696 91 -713 95 l-30 7
0 230 c-1 133 -6 267 -14 319 -46 325 -166 641 -344 913 -37 57 -67 108 -67
115 0 7 22 28 48 47 39 29 358 276 371 286 11 10 -23 12 -269 19 -146 4 -268
9 -271 11 -3 2 -9 65 -12 141 -14 295 -85 578 -212 838 -91 188 -185 334 -294
460 -33 39 -61 77 -61 86 0 9 24 38 53 65 28 26 246 231 482 454 545 513 508
480 520 480 6 0 31 -24 56 -53z m-12630 -156 c704 -383 886 -484 897 -495 11
-11 8 -24 -18 -77 -33 -66 -123 -169 -148 -169 -19 0 -29 10 -457 413 -441
417 -431 407 -424 407 3 0 70 -35 150 -79z m12349 75 c0 -11 -846 -802 -866
-810 -21 -9 -30 -4 -70 35 -43 41 -114 162 -114 192 0 8 48 41 107 73 331 182
938 513 941 514 1 0 2 -2 2 -4z m-6500 -211 c41 -9 115 -32 164 -52 l88 -35
79 31 c265 105 514 106 774 4 230 -90 296 -109 423 -120 63 -5 86 -12 136 -43
108 -65 197 -99 367 -140 292 -69 489 -205 655 -451 63 -94 66 -97 109 -104
105 -15 271 -88 386 -169 91 -63 199 -174 256 -262 26 -41 70 -109 97 -152 29
-44 92 -119 151 -177 70 -70 106 -114 119 -145 44 -113 113 -218 239 -365 127
-148 212 -329 238 -510 11 -76 13 -282 3 -308 -4 -11 12 -37 50 -78 78 -87
154 -217 194 -334 49 -143 56 -193 52 -350 -8 -290 -3 -415 18 -494 18 -66 19
-78 6 -119 -29 -100 -38 -232 -25 -405 10 -124 10 -183 1 -246 -29 -212 -114
-401 -252 -563 -27 -32 -47 -62 -44 -67 11 -17 7 -244 -4 -320 -26 -164 -109
-348 -217 -476 -163 -195 -220 -283 -264 -408 -7 -20 -23 -44 -35 -52 -57 -37
-174 -170 -242 -275 -147 -228 -173 -259 -302 -363 -93 -74 -262 -157 -386
-188 l-92 -23 -33 -56 c-73 -124 -186 -245 -307 -327 -99 -68 -221 -119 -374
-159 -169 -43 -247 -72 -349 -130 -68 -39 -87 -45 -190 -59 -134 -18 -164 -26
-346 -99 -85 -34 -173 -61 -227 -71 -191 -33 -411 -10 -584 60 l-82 33 -78
-33 c-160 -69 -393 -93 -585 -60 -53 10 -139 37 -220 69 -173 70 -219 83 -357
101 -87 12 -124 21 -151 39 -76 51 -179 95 -289 125 -63 17 -149 41 -190 52
-215 59 -427 219 -562 425 l-61 92 -69 16 c-278 63 -500 230 -668 503 -70 114
-104 157 -193 246 -91 91 -113 119 -138 177 -49 115 -97 187 -223 334 -117
138 -185 269 -228 443 -18 72 -22 118 -23 248 l0 160 -30 33 c-128 143 -216
325 -251 517 -12 63 -14 129 -8 310 6 213 5 239 -16 342 -17 87 -20 119 -12
145 25 81 32 185 30 433 -3 244 -2 265 20 350 32 125 116 292 198 395 l68 85
1 160 c2 168 12 232 60 366 44 124 99 214 210 344 110 128 177 234 220 348 10
26 21 47 26 47 22 0 186 183 245 273 37 56 87 132 111 170 125 187 409 370
628 403 38 5 48 12 62 38 37 72 120 180 191 248 142 135 282 210 489 263 76
20 154 40 173 46 48 15 192 84 234 113 25 17 55 25 113 30 109 9 213 37 373
101 122 48 214 75 305 89 58 9 271 -3 345 -19z m-3783 -440 c128 -57 206 -131
259 -246 114 -245 -20 -542 -284 -630 -62 -21 -63 -22 -59 -53 8 -58 -13 -160
-47 -232 -94 -198 -319 -304 -531 -249 -215 56 -374 276 -351 484 23 197 136
345 313 406 l68 24 2 71 c3 123 53 239 141 326 48 48 167 111 232 123 80 15
193 4 257 -24z m8388 5 c189 -65 315 -241 315 -440 l0 -68 38 -7 c58 -11 151
-65 207 -120 140 -141 173 -357 83 -545 -31 -63 -141 -170 -208 -201 -186 -88
-394 -53 -534 90 -90 92 -126 176 -135 310 l-6 83 -56 18 c-67 20 -154 77
-203 130 -167 186 -149 492 39 658 54 48 153 98 218 112 62 13 173 4 242 -20z
m-10346 -1805 c5 -5 11 -41 12 -78 2 -64 1 -70 -32 -109 -19 -23 -38 -47 -42
-54 -11 -19 -37 -17 -61 5 -22 19 -125 99 -233 180 -35 25 -63 49 -63 52 0 3
80 7 177 8 98 1 179 3 180 5 7 6 53 0 62 -9z m12217 5 c88 -1 166 -5 173 -9 9
-6 -3 -19 -36 -43 -26 -20 -82 -62 -124 -94 -41 -33 -91 -71 -110 -86 -20 -16
-41 -28 -46 -28 -6 0 -32 25 -58 56 l-48 55 7 70 c3 39 8 75 11 79 3 5 20 7
38 5 17 -2 104 -5 193 -5z m-11543 -1316 c90 -23 151 -58 215 -122 104 -104
151 -233 137 -375 -9 -91 -46 -184 -96 -242 l-30 -33 41 -58 c168 -240 86
-560 -178 -690 -63 -31 -86 -37 -162 -42 -149 -8 -267 35 -367 136 -95 94
-138 208 -131 349 5 105 32 180 89 253 21 27 35 51 30 54 -21 14 -80 116 -100
175 -26 79 -28 193 -5 272 69 236 323 384 557 323z m10827 5 c151 -24 289
-132 350 -274 12 -27 26 -88 32 -135 9 -71 8 -96 -6 -150 -19 -74 -45 -129
-87 -181 l-29 -36 44 -66 c24 -38 53 -100 66 -144 21 -72 22 -85 12 -165 -25
-200 -157 -355 -345 -404 -71 -19 -208 -14 -267 8 -170 66 -286 207 -310 379
-19 134 12 236 113 373 6 7 -7 35 -32 73 -102 152 -114 312 -35 470 59 118
166 209 286 244 74 21 119 23 208 8z m-12031 -652 c30 -78 18 -270 -17 -279
-9 -3 -282 29 -606 71 -394 51 -579 78 -560 83 16 4 193 29 394 54 201 26 442
57 535 69 230 31 243 31 254 2z m13674 -51 c313 -41 570 -76 572 -78 3 -2
-165 -26 -373 -52 -358 -46 -700 -90 -769 -100 -17 -2 -38 1 -47 7 -24 19 -39
137 -26 210 15 85 16 87 47 87 15 0 284 -33 596 -74z m-14668 -155 c209 -27
511 -66 670 -87 160 -20 296 -42 303 -49 10 -9 11 -33 3 -112 -11 -120 1 -380
24 -506 56 -312 161 -576 331 -835 41 -62 72 -117 69 -122 -5 -8 -104 -87
-358 -283 l-68 -52 78 -6 c43 -3 148 -7 233 -8 169 -3 229 -6 236 -13 2 -3 6
-50 9 -104 16 -352 97 -657 255 -959 59 -111 177 -287 249 -370 34 -38 61 -79
61 -90 0 -11 -15 -33 -32 -49 -32 -28 -280 -261 -443 -417 -318 -304 -562
-529 -573 -529 -41 0 -342 392 -476 620 -165 283 -269 528 -380 900 -44 144
-101 465 -112 624 -7 98 -8 101 -61 189 -78 127 -192 359 -257 523 -131 329
-212 670 -246 1039 -21 226 -6 729 23 747 7 5 28 6 47 3 19 -3 206 -27 415
-54z m15507 24 c14 -55 30 -418 23 -545 -22 -422 -89 -757 -230 -1145 -55
-152 -186 -426 -273 -573 -61 -102 -62 -104 -72 -210 -54 -529 -205 -1015
-448 -1442 -30 -52 -63 -111 -74 -130 -95 -166 -410 -570 -444 -570 -8 0 -95
75 -192 168 -97 92 -331 313 -520 491 -188 177 -342 330 -342 337 0 8 29 48
64 88 74 85 194 265 255 381 147 281 232 595 248 914 3 69 9 131 14 136 5 6
64 12 141 13 156 3 392 13 396 17 2 2 -22 22 -53 46 -285 219 -365 284 -365
296 0 6 30 55 66 110 70 104 198 357 232 458 102 303 140 553 128 847 -6 145
-5 157 11 162 10 3 144 21 298 41 154 20 462 60 685 90 223 29 414 53 424 52
13 -1 23 -13 28 -32z m-14016 -1830 c47 -55 47 -56 45 -123 -1 -37 -7 -73 -13
-80 -8 -9 -55 -11 -212 -6 -110 4 -202 8 -204 9 -4 3 321 254 329 255 4 0 28
-25 55 -55z m12287 -80 c85 -66 154 -121 154 -121 -1 -1 -95 -4 -209 -8 -129
-5 -208 -4 -212 3 -3 5 -9 40 -12 78 l-6 69 42 50 c50 58 60 65 76 56 6 -4 81
-61 167 -127z m-10703 -522 c124 -43 230 -137 280 -246 31 -70 42 -124 42
-208 0 -56 1 -57 32 -63 64 -12 157 -66 215 -123 111 -112 161 -280 127 -427
-35 -148 -125 -257 -266 -325 -73 -35 -79 -36 -191 -36 -113 0 -116 1 -193 38
-171 85 -269 235 -269 413 l0 72 -64 21 c-174 57 -286 193 -313 380 -15 97 -5
157 40 258 45 98 148 197 250 238 85 34 226 38 310 8z m9189 -9 c260 -97 374
-398 248 -653 -49 -98 -171 -199 -274 -225 l-48 -12 -6 -85 c-4 -46 -14 -106
-23 -133 -46 -140 -156 -248 -302 -296 -58 -20 -81 -22 -165 -17 -88 5 -107 9
-175 43 -245 121 -337 416 -203 651 54 95 187 196 287 217 l32 8 0 67 c0 73
19 151 55 221 103 201 355 295 574 214z m-10052 -1276 c54 -56 117 -167 107
-191 -3 -8 -231 -137 -507 -287 -276 -151 -513 -280 -527 -288 -32 -19 121
133 360 358 102 95 226 212 275 259 173 165 214 201 227 201 8 0 37 -24 65
-52z m10909 -155 c185 -174 421 -398 614 -582 l45 -43 -95 50 c-322 171 -957
523 -965 536 -15 24 33 114 99 184 33 34 64 62 71 62 6 0 110 -93 231 -207z
m-10721 -158 c63 -113 184 -266 314 -396 235 -236 482 -395 787 -510 60 -22
112 -45 115 -51 4 -6 3 -22 -1 -37 -58 -195 -140 -484 -138 -486 2 -2 101 64
220 146 120 82 224 149 231 149 7 0 38 -33 67 -72 78 -103 299 -322 405 -401
50 -37 95 -70 100 -75 20 -16 187 -113 254 -146 113 -57 320 -135 417 -156
118 -26 124 -29 124 -58 -1 -47 -258 -1394 -268 -1404 -11 -11 -90 4 -267 53
-377 104 -775 287 -1065 488 -36 24 -90 62 -121 83 -157 108 -456 382 -601
551 -52 61 -71 76 -127 98 -80 32 -272 124 -361 174 -406 228 -750 517 -1055
886 -91 109 -288 394 -340 492 -17 32 -18 39 -5 51 23 23 1243 686 1262 686
10 0 30 -25 53 -65z m10922 -272 c340 -185 624 -343 630 -351 15 -18 3 -41
-115 -222 -302 -465 -716 -864 -1187 -1146 -120 -72 -352 -190 -453 -230 -68
-27 -80 -36 -157 -124 -414 -473 -984 -847 -1591 -1046 -108 -35 -404 -114
-429 -114 -8 0 -19 16 -24 38 -6 20 -67 340 -136 710 -95 506 -123 677 -115
687 6 7 30 17 53 20 162 27 478 155 641 259 195 124 292 201 425 336 73 74
221 249 221 262 0 25 59 -7 255 -142 121 -82 220 -148 222 -147 1 2 -18 70
-43 152 -93 309 -107 367 -92 379 7 7 45 23 83 35 105 35 345 154 454 226 127
83 225 162 338 271 80 79 115 118 231 264 15 19 42 58 59 85 17 28 43 69 57
93 14 23 33 42 40 42 8 0 293 -151 633 -337z m-7688 -254 c105 -24 203 -89
267 -177 30 -41 44 -52 59 -48 11 2 47 12 80 21 45 13 81 16 144 12 265 -19
462 -264 423 -528 -27 -183 -164 -338 -337 -383 -137 -36 -277 -12 -388 68
-64 46 -128 114 -139 147 -3 9 -16 8 -54 -5 -27 -10 -89 -20 -139 -23 -75 -4
-100 -2 -155 17 -91 31 -141 63 -202 129 -83 90 -128 202 -128 319 0 61 31
174 65 234 32 57 124 145 186 176 93 48 219 64 318 41z m3999 -8 c206 -63 330
-230 334 -451 3 -174 -99 -333 -268 -416 -76 -38 -80 -39 -188 -39 -86 0 -122
4 -160 19 l-49 20 -20 -30 c-34 -48 -121 -129 -168 -157 -70 -41 -160 -60
-260 -55 -73 5 -98 11 -160 41 -109 53 -169 110 -217 209 -66 132 -72 247 -21
382 83 224 345 350 570 273 l67 -23 26 42 c54 85 159 160 266 190 68 19 176
17 248 -5z m-5878 -450 c60 -16 68 -22 102 -72 21 -30 37 -62 35 -72 -2 -18
-330 -250 -335 -238 -5 13 110 386 122 393 6 4 11 8 11 7 0 0 29 -8 65 -18z
m7608 7 c5 -7 28 -78 51 -158 22 -80 47 -166 55 -192 l15 -47 -64 42 c-227
150 -275 183 -279 194 -3 7 11 40 30 73 31 52 42 61 78 70 22 6 52 15 66 20
35 12 36 12 48 -2z m-5903 -1113 c28 -4 75 -20 105 -37 79 -43 81 -45 69 -76
-18 -47 -492 -1047 -501 -1057 -6 -6 -7 0 -4 15 4 14 53 276 110 583 58 307
110 565 116 573 7 7 22 12 34 9 11 -2 44 -7 71 -10z m4225 -7 c11 -26 222
-1148 218 -1159 -2 -4 -33 56 -70 134 -36 78 -150 318 -252 534 -102 215 -186
398 -186 407 0 23 115 79 190 92 91 16 89 16 100 -8z m-3883 -141 c123 -53
306 -105 443 -127 135 -21 202 -25 405 -24 221 1 342 18 554 76 104 28 115 30
126 15 7 -9 49 -121 95 -249 45 -128 85 -236 89 -240 7 -8 25 39 127 327 32
88 60 164 64 168 4 5 71 -7 149 -27 201 -51 313 -67 506 -73 265 -8 522 31
780 119 50 17 107 39 128 50 70 35 71 33 177 -187 168 -353 392 -826 457 -965
76 -162 85 -145 -110 -220 -480 -188 -867 -262 -1367 -263 -315 0 -551 25
-812 88 -90 22 -101 22 -150 9 -85 -23 -302 -61 -453 -80 -172 -21 -574 -24
-750 -5 -357 38 -659 111 -975 234 -167 65 -210 86 -210 102 0 8 86 195 191
417 106 222 239 502 296 623 115 242 127 265 147 265 8 0 50 -15 93 -33z
m1788 9 c33 -14 61 -31 63 -39 2 -8 -27 -96 -63 -196 -36 -100 -65 -187 -65
-194 -1 -21 -19 17 -51 109 -17 49 -46 131 -66 183 -24 66 -31 97 -24 104 14
14 111 55 131 56 8 1 42 -10 75 -23z"/>
<path d="M8800 17341 c0 -20 4 -21 205 -36 159 -13 509 -75 528 -94 7 -7 -29
-162 -91 -384 -15 -55 -18 -58 -41 -54 -14 3 -74 14 -132 25 -140 27 -355 52
-450 52 l-76 0 -6 -32 c-2 -18 -5 -89 -6 -158 -1 -69 -4 -177 -7 -241 -8 -136
-19 -124 121 -134 96 -6 258 -28 340 -45 106 -22 112 -22 120 -10 4 6 1 18 -6
25 -23 21 -335 75 -437 75 -26 0 -58 3 -71 7 l-23 6 7 226 c4 124 9 228 11
230 20 22 404 -24 588 -70 43 -11 80 -18 82 -16 6 6 37 119 94 340 56 221 69
193 -110 231 -212 45 -446 76 -572 76 -60 0 -68 -2 -68 -19z"/>
<path d="M10130 17344 c-215 -25 -485 -78 -508 -99 -11 -10 -2 -55 48 -250 73
-283 75 -289 96 -281 95 36 628 106 649 84 9 -9 13 -78 16 -267 3 -207 6 -201
-78 -201 -65 0 -177 -15 -313 -41 -139 -27 -140 -27 -140 -50 0 -24 6 -24 122
0 85 18 306 46 413 53 l40 3 3 100 c1 55 -1 179 -5 275 l-8 175 -60 3 c-80 5
-246 -13 -430 -45 -208 -36 -197 -37 -211 17 -66 243 -96 371 -91 383 10 27
347 90 547 102 158 9 180 14 180 36 0 17 -7 19 -77 18 -43 -1 -130 -7 -193
-15z"/>
<path d="M8150 17323 c-208 -37 -380 -80 -565 -142 -131 -44 -128 -34 -66
-196 23 -60 62 -164 87 -230 25 -66 49 -123 52 -126 4 -4 54 9 112 28 193 63
397 112 472 113 32 0 37 -3 42 -27 12 -62 56 -416 51 -422 -2 -4 -37 -13 -77
-20 -82 -14 -102 -19 -243 -57 -110 -30 -185 -59 -185 -72 0 -25 23 -29 69
-11 70 26 307 87 371 94 30 4 70 11 88 17 31 9 33 13 28 42 -3 17 -17 126 -31
241 -35 284 -31 271 -86 267 -107 -7 -449 -90 -562 -137 -14 -6 -22 3 -41 46
-45 103 -137 368 -132 378 17 28 384 126 619 167 82 14 97 19 97 35 0 16 -7
19 -37 18 -21 -1 -49 -4 -63 -6z"/>
<path d="M10954 17316 c-4 -9 -5 -19 -3 -21 2 -2 47 -11 99 -19 283 -48 611
-142 618 -178 2 -9 -13 -61 -33 -115 -75 -202 -108 -288 -114 -295 -4 -4 -36
2 -71 13 -151 47 -242 71 -355 94 -170 33 -189 36 -201 27 -17 -10 -83 -530
-69 -542 6 -5 42 -14 80 -20 116 -18 236 -47 346 -83 57 -19 107 -33 112 -30
4 2 7 12 7 22 0 14 -19 25 -80 45 -92 30 -245 69 -343 86 -38 7 -71 18 -74 26
-2 7 8 109 24 226 l28 213 28 3 c56 7 318 -55 499 -116 64 -22 89 -27 96 -19
4 7 27 62 50 122 23 61 64 168 91 240 33 86 46 134 40 141 -30 37 -525 169
-708 190 -51 6 -62 4 -67 -10z"/>
<path d="M6705 16896 c-235 -82 -531 -215 -543 -244 -13 -35 18 -32 98 8 210
106 553 237 597 228 11 -2 22 -24 34 -68 9 -36 35 -130 57 -210 32 -111 38
-147 29 -156 -7 -6 -46 -21 -87 -34 -176 -55 -482 -194 -488 -221 -2 -13 35
-86 122 -244 13 -22 46 -84 75 -137 29 -54 56 -98 61 -98 7 0 162 70 245 111
11 5 76 29 145 53 81 27 125 48 125 57 0 8 -10 15 -22 17 -32 5 -218 -61 -356
-126 -70 -33 -121 -52 -126 -46 -5 5 -30 50 -56 99 -26 50 -51 95 -55 100 -18
26 -100 185 -100 195 0 22 261 136 460 201 63 21 116 42 118 48 4 11 -26 127
-96 381 -35 125 -39 135 -62 137 -14 0 -92 -22 -175 -51z"/>
<path d="M5594 16277 c-243 -201 -524 -507 -466 -507 4 0 21 -13 37 -28 37
-34 282 -236 336 -276 l40 -30 31 40 c48 60 294 303 371 367 38 31 75 57 82
57 8 0 65 -66 127 -146 153 -197 158 -206 150 -219 -4 -6 -43 -43 -87 -82
-144 -127 -285 -275 -285 -298 0 -36 36 -11 150 105 124 126 166 165 248 229
23 19 42 39 42 46 0 6 -30 49 -66 95 -36 47 -105 137 -155 201 -49 64 -95 122
-103 128 -11 9 -24 4 -62 -25 -115 -87 -285 -246 -396 -371 -25 -29 -51 -53
-58 -53 -11 0 -315 245 -339 273 -10 13 -2 27 47 84 92 106 257 267 370 361
56 47 102 89 102 93 0 3 -6 12 -14 18 -11 9 -32 -4 -102 -62z"/>
<path d="M4955 15721 c-230 -100 -555 -286 -555 -317 0 -27 29 -26 72 4 186
126 587 327 609 305 4 -4 21 -44 37 -88 17 -44 51 -133 76 -197 25 -65 46
-122 46 -128 0 -5 -21 -19 -47 -31 -133 -59 -250 -120 -363 -187 -157 -94
-180 -110 -180 -128 0 -26 293 -444 311 -444 9 0 48 20 86 45 37 25 146 85
241 132 161 80 194 105 158 119 -18 7 -242 -101 -369 -178 -54 -33 -105 -57
-112 -55 -14 6 -246 342 -252 367 -7 27 373 241 540 304 26 10 47 23 47 31 0
7 -15 50 -33 96 -19 46 -60 153 -93 237 -32 85 -66 157 -74 162 -10 5 -60 -12
-145 -49z"/>
<path d="M3864 14968 c-166 -170 -414 -482 -414 -522 0 -11 407 -288 444 -302
7 -3 21 7 31 23 68 107 232 308 323 397 43 42 64 56 74 50 25 -15 293 -304
296 -319 2 -8 -35 -57 -82 -107 -92 -101 -236 -285 -236 -304 0 -24 35 -26 50
-2 57 87 194 250 293 349 26 27 47 52 47 56 0 5 -23 33 -51 63 -227 242 -314
330 -329 330 -31 0 -223 -212 -360 -397 -29 -40 -59 -73 -65 -73 -12 0 -108
60 -267 168 -85 57 -106 76 -101 90 7 20 169 238 221 297 19 22 82 89 139 148
98 101 119 137 81 137 -8 0 -50 -37 -94 -82z"/>
<path d="M12290 16908 c-6 -24 -22 -83 -36 -133 -63 -220 -94 -349 -87 -355 4
-4 28 -12 53 -19 83 -23 314 -110 388 -146 40 -19 75 -35 78 -35 3 0 19 -9 35
-21 l29 -20 -47 -87 c-25 -48 -49 -91 -53 -97 -4 -5 -29 -50 -55 -100 -68
-128 -60 -124 -147 -82 -146 71 -351 147 -400 147 -11 0 -18 -7 -18 -18 0 -14
16 -24 68 -39 113 -35 182 -62 312 -124 68 -33 129 -58 136 -55 6 2 32 42 56
88 25 45 59 108 76 138 120 218 132 243 122 255 -11 13 -178 99 -235 122 -16
6 -57 23 -90 36 -33 13 -104 39 -157 57 -62 20 -98 37 -98 46 0 22 104 397
116 415 9 15 26 11 155 -32 163 -54 265 -96 447 -187 77 -38 95 -44 102 -32
14 23 -6 38 -136 100 -108 52 -185 84 -359 150 -78 29 -210 70 -228 70 -11 0
-20 -15 -27 -42z"/>
<path d="M13509 16334 c-15 -18 -6 -27 131 -144 133 -112 380 -369 380 -394 0
-11 -277 -246 -327 -276 -20 -13 -28 -7 -140 110 -109 114 -301 289 -359 327
-24 15 -26 15 -44 -3 -51 -53 -318 -416 -314 -427 2 -7 31 -33 64 -57 33 -25
125 -111 206 -193 80 -81 150 -144 155 -141 5 3 9 13 9 22 0 23 -159 193 -275
292 -52 45 -95 87 -95 93 0 10 53 82 225 304 43 56 60 63 91 36 11 -10 55 -49
99 -88 91 -80 178 -166 281 -279 l72 -79 43 34 c24 19 52 42 64 52 11 10 63
53 115 95 52 42 100 81 106 87 7 5 30 25 53 43 49 40 49 40 -49 151 -117 134
-268 277 -461 438 -14 11 -18 11 -30 -3z"/>
<path d="M14103 15772 c-20 -13 -202 -496 -192 -508 5 -7 22 -15 37 -19 69
-17 496 -245 540 -289 10 -10 8 -19 -11 -47 -208 -307 -231 -339 -248 -339
-10 0 -20 4 -23 9 -20 32 -427 236 -452 227 -34 -13 -6 -36 103 -86 64 -30
174 -89 246 -132 71 -43 135 -78 142 -78 14 0 41 34 161 210 138 203 154 229
149 242 -9 24 -202 138 -400 239 -125 63 -189 101 -187 110 3 14 153 401 157
407 10 12 353 -150 453 -214 29 -19 55 -34 57 -34 3 0 37 -21 75 -46 66 -44
100 -52 100 -22 -1 47 -667 395 -707 370z"/>
<path d="M15224 15039 c-4 -6 30 -49 78 -98 170 -174 388 -446 388 -483 -1
-15 -334 -240 -364 -245 -16 -2 -35 16 -84 84 -34 49 -81 111 -103 138 -70 87
-230 245 -247 245 -10 0 -26 -10 -37 -23 -12 -12 -91 -97 -178 -188 -86 -92
-157 -172 -157 -179 0 -7 37 -52 83 -100 89 -93 183 -206 235 -282 35 -50 49
-58 58 -33 11 26 -113 194 -246 334 -38 41 -70 78 -70 83 0 5 46 57 103 116
57 59 125 131 152 160 26 28 53 52 59 52 26 0 209 -207 330 -373 43 -59 82
-107 86 -105 27 10 450 295 450 303 0 30 -260 358 -402 508 -89 92 -118 111
-134 86z"/>
<path d="M3023 13873 c-73 -98 -146 -206 -205 -303 -62 -104 -148 -268 -148
-284 0 -12 29 -32 35 -24 1 2 23 46 50 98 26 52 56 107 66 122 11 14 19 28 19
31 0 6 53 93 105 172 60 91 147 205 156 205 4 0 43 -28 86 -62 204 -162 263
-211 263 -220 0 -5 -24 -43 -52 -84 -122 -173 -268 -424 -268 -461 0 -13 41
-34 374 -192 60 -29 114 -50 120 -47 6 2 26 35 45 73 54 107 131 231 210 336
39 52 42 60 28 74 -13 13 -17 12 -36 -9 -40 -42 -158 -222 -211 -320 -28 -54
-56 -98 -60 -98 -5 0 -62 25 -127 56 -65 31 -155 74 -200 95 -46 21 -83 44
-83 50 0 37 177 328 282 466 27 35 47 67 44 72 -5 8 -101 87 -298 245 -59 47
-114 86 -122 86 -9 0 -41 -35 -73 -77z"/>
<path d="M2465 12749 c-47 -74 -155 -735 -128 -775 5 -7 85 -16 218 -23 116
-7 236 -14 267 -17 66 -6 63 -12 73 121 15 192 89 545 114 545 7 0 175 -47
334 -94 48 -14 89 -26 92 -26 10 0 5 -41 -15 -127 -23 -95 -60 -336 -60 -384
0 -33 26 -51 41 -28 5 8 9 33 9 56 0 57 34 256 66 390 15 62 25 115 22 118 -3
4 -28 12 -54 20 -27 7 -89 25 -139 40 -198 58 -325 95 -328 95 -23 0 -92 -307
-122 -540 -9 -69 -19 -128 -24 -132 -6 -7 -348 8 -420 18 l-33 5 6 82 c4 45
14 123 21 172 8 50 17 108 20 130 7 46 49 232 65 285 5 19 10 42 10 51 0 19
-26 33 -35 18z"/>
<path d="M2292 11903 c-103 -166 -188 -334 -268 -527 -50 -121 -53 -132 -37
-144 9 -6 20 -9 24 -5 4 5 31 67 59 138 77 191 237 500 270 520 5 3 71 -34
147 -83 76 -48 159 -102 185 -118 27 -16 48 -36 48 -45 0 -10 -18 -47 -40 -84
-76 -124 -240 -482 -240 -523 0 -16 26 -28 138 -67 54 -19 155 -54 226 -79 70
-25 136 -46 145 -46 13 0 26 21 46 73 36 92 124 276 176 366 39 68 43 91 14
91 -23 0 -159 -250 -215 -395 -13 -33 -28 -66 -34 -73 -10 -10 -56 4 -224 65
-127 46 -212 82 -212 90 0 40 145 350 231 496 32 54 56 103 53 109 -3 5 -32
26 -63 45 -31 20 -128 83 -217 140 -89 56 -166 103 -172 103 -5 0 -23 -21 -40
-47z"/>
<path d="M1826 10692 c-23 -38 -57 -400 -57 -606 0 -195 2 -199 56 -191 17 2
104 7 195 10 91 3 195 8 233 11 l67 7 0 131 c0 121 20 378 36 461 6 31 10 35
38 35 17 -1 119 -17 226 -38 l195 -37 -1 -35 c0 -19 -5 -81 -12 -138 -15 -131
-16 -348 -1 -358 23 -14 32 19 35 141 1 69 10 188 19 265 9 76 15 145 13 151
-3 8 -76 26 -184 46 -98 18 -217 40 -263 49 -46 8 -86 13 -88 10 -22 -22 -52
-277 -55 -479 -1 -81 -5 -152 -8 -157 -3 -5 -102 -13 -220 -19 -181 -8 -217
-7 -229 5 -13 12 -13 46 -3 256 7 134 21 295 31 358 14 84 16 117 7 122 -14
10 -24 10 -30 0z"/>
<path d="M15998 13873 c-52 -43 -143 -116 -202 -162 -58 -47 -106 -90 -106
-97 0 -7 35 -60 78 -118 114 -157 242 -373 242 -411 0 -11 -47 -38 -147 -86
-82 -39 -172 -82 -201 -97 -62 -30 -64 -29 -108 58 -81 158 -216 350 -246 350
-27 0 -22 -28 15 -74 55 -68 110 -155 182 -284 37 -67 71 -124 75 -127 10 -6
50 11 245 104 230 110 240 115 246 125 17 23 -121 267 -270 474 -28 41 -51 77
-49 81 4 11 115 104 198 166 36 27 83 64 104 82 22 18 43 33 47 33 9 0 77 -88
142 -183 71 -103 164 -263 231 -395 18 -36 30 -50 41 -46 24 10 18 34 -31 129
-113 216 -341 555 -374 555 -9 0 -59 -35 -112 -77z"/>
<path d="M16717 12752 c-14 -3 -18 -10 -14 -25 3 -12 21 -89 40 -172 38 -159
77 -412 77 -494 0 -42 -3 -50 -22 -54 -24 -6 -299 -21 -383 -22 l-50 0 -7 65
c-29 241 -93 555 -121 594 -13 17 9 22 -302 -69 -181 -53 -225 -67 -230 -74
-2 -4 9 -60 24 -124 31 -125 69 -355 71 -424 0 -25 35 -33 42 -11 10 28 -30
294 -63 428 -10 41 -19 82 -19 91 0 19 427 146 442 131 23 -23 71 -255 102
-492 l21 -165 55 2 c132 4 476 25 483 30 4 2 7 23 7 46 0 52 -27 293 -41 367
-21 110 -81 365 -87 371 -4 3 -15 4 -25 1z"/>
<path d="M16820 11921 c-238 -150 -387 -246 -397 -255 -9 -8 -1 -29 34 -86
102 -167 261 -516 244 -533 -16 -16 -424 -158 -432 -150 -4 4 -24 49 -44 98
-42 102 -119 257 -165 328 -21 33 -36 47 -48 45 -21 -4 -18 -32 8 -68 32 -46
127 -235 170 -341 23 -57 47 -109 52 -116 7 -9 38 -1 121 29 62 22 123 44 137
48 14 5 76 27 138 49 63 23 116 41 119 41 34 0 -169 464 -258 592 -11 14 -19
31 -19 36 0 10 145 108 303 206 92 57 73 69 176 -114 79 -142 136 -262 187
-394 39 -101 52 -120 73 -106 12 7 9 23 -19 97 -81 214 -297 623 -328 623 -4
0 -27 -13 -52 -29z"/>
<path d="M17345 10690 c-4 -6 -2 -41 4 -78 39 -233 56 -654 28 -665 -15 -6
-415 11 -434 18 -9 3 -13 32 -13 99 0 176 -36 516 -57 537 -5 5 -42 3 -83 -5
-352 -63 -437 -80 -448 -91 -12 -10 -11 -29 3 -111 9 -55 20 -177 24 -273 4
-125 9 -176 18 -179 36 -11 40 159 8 408 -10 81 -11 108 -2 116 7 7 53 19 102
29 50 9 122 23 161 30 80 16 184 30 184 24 0 -2 7 -42 16 -89 9 -52 18 -173
21 -312 l6 -226 81 -7 c197 -15 451 -22 464 -13 25 21 8 453 -27 664 -10 61
-21 116 -25 122 -9 15 -23 15 -31 2z"/>
<path d="M9026 13334 c-121 -29 -252 -129 -306 -235 -63 -122 -66 -290 -7
-413 133 -279 485 -352 724 -149 169 143 205 413 80 601 -104 157 -309 238
-491 196z"/>
<path d="M10005 13340 c-188 -29 -337 -166 -381 -350 -66 -273 129 -544 408
-567 142 -12 268 34 366 134 199 203 182 504 -38 688 -61 52 -133 82 -224 94
-43 6 -78 10 -79 10 -1 -1 -24 -5 -52 -9z"/>
<path d="M7965 12989 c-27 -6 -83 -26 -123 -46 -116 -57 -213 -179 -241 -304
-35 -151 12 -318 121 -428 227 -232 613 -167 749 124 72 154 54 337 -46 472
-103 139 -293 214 -460 182z"/>
<path d="M11080 12989 c-96 -14 -181 -58 -254 -131 -101 -102 -143 -216 -133
-363 12 -188 137 -344 326 -405 61 -19 85 -22 159 -17 98 6 152 24 232 78 75
50 121 103 158 182 40 84 51 153 40 253 -27 260 -264 441 -528 403z"/>
<path d="M7173 12425 c-79 -22 -145 -59 -201 -113 -97 -95 -142 -199 -142
-334 0 -353 377 -576 684 -404 266 149 320 507 110 721 -71 71 -114 100 -194
124 -76 24 -180 26 -257 6z"/>
<path d="M11778 12420 c-159 -50 -271 -172 -314 -343 -18 -69 -14 -159 10
-238 45 -146 162 -259 321 -310 52 -16 165 -16 235 0 235 56 393 315 336 553
-10 40 -30 96 -46 123 -35 60 -118 143 -180 178 -99 57 -251 72 -362 37z"/>
<path d="M9530 11903 c-133 -62 -351 -122 -527 -147 -82 -12 -112 -22 -183
-60 -158 -84 -347 -154 -513 -191 l-77 -17 -42 -72 c-75 -130 -220 -311 -354
-441 -48 -47 -73 -83 -116 -170 -30 -60 -67 -128 -81 -150 -85 -129 -143 -208
-197 -266 l-60 -67 12 -135 c13 -152 3 -335 -28 -494 -17 -89 -17 -97 0 -184
29 -156 41 -360 28 -504 l-11 -127 73 -86 c115 -138 193 -257 278 -425 36 -71
64 -107 149 -195 116 -118 232 -267 299 -382 24 -41 45 -77 46 -78 1 -2 42
-13 91 -24 152 -33 349 -108 498 -187 69 -37 105 -50 155 -55 36 -4 83 -11
105 -16 211 -47 320 -79 439 -131 l88 -38 77 34 c145 64 317 112 496 140 94
15 127 26 230 76 192 92 326 142 470 174 39 9 78 18 87 21 10 3 34 35 54 71
70 125 228 321 352 438 40 38 67 77 107 158 79 159 169 295 279 425 l60 69 1
249 c1 191 5 275 20 359 22 134 22 116 -1 250 -14 85 -18 166 -19 357 l-1 247
-50 58 c-109 126 -241 327 -301 459 -19 43 -57 91 -142 180 -120 125 -241 281
-306 395 l-38 66 -81 18 c-149 32 -370 115 -530 200 -54 29 -89 40 -169 51
-166 23 -363 77 -508 140 -45 19 -86 34 -92 33 -7 0 -37 -12 -67 -26z m157
-56 c139 -60 305 -105 478 -132 94 -15 125 -25 215 -70 164 -82 370 -158 503
-185 59 -12 59 -12 105 -87 90 -144 213 -296 338 -418 49 -47 74 -84 117 -170
64 -127 185 -312 266 -404 l56 -65 1 -240 c1 -187 5 -264 19 -341 23 -126 23
-146 0 -280 -15 -86 -19 -161 -19 -341 l-1 -232 -58 -68 c-82 -97 -201 -279
-264 -402 -45 -89 -68 -121 -155 -211 -115 -119 -232 -269 -297 -379 -32 -53
-50 -74 -70 -78 -211 -48 -380 -109 -550 -200 -70 -37 -101 -47 -185 -60 -176
-26 -362 -77 -512 -142 l-71 -30 -44 20 c-132 59 -368 126 -539 152 -79 12
-114 23 -205 69 -179 89 -310 138 -470 175 -78 18 -81 20 -111 68 -111 173
-241 334 -366 454 -38 38 -67 77 -89 125 -66 141 -185 324 -287 443 l-55 64
-2 246 c-1 187 -6 273 -20 356 -17 105 -17 112 1 230 14 90 19 182 20 360 l1
240 59 68 c80 93 197 271 263 398 46 89 71 122 160 215 114 119 221 255 295
376 l47 75 97 24 c126 30 309 99 447 168 98 49 125 57 246 78 159 27 342 79
454 128 44 19 85 34 92 35 6 1 47 -14 90 -32z"/>
<path d="M9486 11599 c-63 -25 -256 -74 -369 -94 -49 -8 -93 -17 -98 -21 -5
-3 -9 -20 -9 -37 l-1 -32 -15 28 c-8 15 -19 27 -24 27 -5 0 -44 -17 -87 -39
-119 -59 -208 -96 -320 -133 -73 -23 -103 -38 -103 -49 0 -9 3 -18 6 -21 14
-14 291 87 420 152 32 17 61 30 65 30 8 0 109 -175 109 -189 0 -5 7 -15 16
-22 15 -12 16 -10 10 26 -3 22 -11 78 -17 125 -12 99 -9 104 74 114 104 12
394 93 421 117 9 8 -10 40 -23 38 -3 -1 -28 -10 -55 -20z"/>
<path d="M9644 11605 c-3 -8 -3 -18 0 -23 12 -20 212 -80 385 -114 l114 -23
-7 -75 c-3 -41 -8 -100 -12 -130 l-6 -55 51 89 c28 49 51 92 51 96 0 4 8 14
19 24 17 15 22 15 77 -13 168 -82 410 -169 427 -152 18 18 -2 40 -45 51 -85
21 -205 69 -354 141 -55 27 -105 49 -110 49 -6 0 -18 -15 -27 -32 l-17 -33 5
36 c7 44 5 44 -115 65 -112 19 -305 68 -369 94 -62 24 -60 24 -67 5z"/>
<path d="M8338 11153 c-52 -77 -146 -190 -235 -283 -46 -48 -83 -91 -83 -96 0
-4 10 -19 23 -32 20 -23 21 -25 2 -17 -46 17 -53 16 -74 -13 -11 -17 -21 -33
-21 -36 0 -24 -155 -275 -218 -354 -33 -41 -37 -72 -9 -72 7 0 29 21 49 48 54
71 180 270 208 330 14 28 30 52 37 52 7 0 61 -23 120 -50 58 -28 107 -49 109
-48 1 2 -35 45 -82 96 -46 51 -84 97 -84 102 0 5 8 15 18 22 24 17 132 137
197 218 75 95 113 153 108 168 -9 24 -33 11 -65 -35z"/>
<path d="M10804 11185 c-5 -13 19 -51 117 -180 16 -22 68 -81 115 -132 46 -50
84 -97 84 -103 0 -7 -37 -50 -82 -96 -45 -46 -79 -86 -76 -89 3 -3 51 17 107
45 55 27 107 50 115 50 7 0 30 -33 51 -72 32 -63 178 -290 218 -340 8 -10 21
-18 30 -18 28 0 26 28 -7 67 -55 64 -158 229 -217 346 -29 56 -44 77 -59 77
-10 0 -22 -4 -25 -10 -3 -5 -11 -10 -17 -10 -6 0 -1 11 11 24 26 27 20 50 -23
83 -40 32 -206 224 -259 301 -50 71 -72 86 -83 57z"/>
<path d="M9549 11080 c-67 -23 -243 -65 -329 -80 -36 -6 -92 -24 -125 -40
-105 -50 -176 -79 -348 -143 -16 -5 -47 -35 -69 -66 -47 -64 -127 -159 -209
-246 -30 -33 -74 -94 -96 -137 -23 -42 -75 -127 -116 -190 l-75 -113 -6 -125
c-4 -69 -13 -173 -21 -233 -12 -92 -12 -122 0 -215 8 -59 17 -165 21 -237 l7
-130 37 -50 c41 -55 53 -75 134 -218 31 -53 56 -101 56 -105 0 -4 23 -30 51
-57 59 -57 179 -199 228 -266 24 -35 43 -49 74 -58 67 -19 267 -101 332 -136
34 -18 84 -35 115 -39 67 -9 243 -50 328 -78 61 -19 65 -19 115 -3 74 25 273
72 335 80 31 4 97 27 155 55 107 50 264 114 311 126 17 4 42 27 69 63 51 69
155 190 216 252 25 25 57 68 71 95 32 64 123 214 175 289 l42 60 7 160 c4 88
12 192 19 230 10 56 10 84 0 140 -7 39 -15 142 -19 230 l-7 160 -72 110 c-40
61 -94 151 -120 200 -31 58 -72 115 -115 160 -78 82 -153 171 -200 237 -26 38
-43 51 -84 64 -74 24 -257 99 -324 133 -31 15 -88 34 -127 40 -95 17 -258 56
-326 80 -55 18 -57 18 -110 1z m88 -44 c34 -12 96 -28 258 -66 22 -5 65 -14
95 -19 30 -5 87 -25 125 -44 59 -29 217 -93 318 -130 15 -5 42 -31 60 -56 35
-51 138 -172 205 -241 24 -25 66 -85 94 -135 58 -105 121 -205 159 -255 24
-32 27 -45 33 -165 4 -71 13 -175 20 -230 11 -81 11 -118 0 -197 -7 -54 -16
-155 -20 -224 l-7 -127 -67 -101 c-37 -55 -89 -141 -115 -191 -28 -52 -72
-116 -105 -150 -81 -86 -172 -194 -203 -239 -23 -35 -38 -44 -129 -76 -103
-37 -151 -57 -263 -110 -33 -15 -100 -35 -150 -45 -98 -18 -204 -44 -290 -71
-52 -17 -58 -17 -110 0 -81 25 -189 52 -290 72 -56 10 -124 33 -180 59 -110
52 -230 100 -284 115 -30 8 -48 22 -75 60 -40 56 -146 180 -215 252 -24 26
-59 73 -76 105 -59 108 -77 138 -140 233 l-63 95 -5 145 c-3 80 -11 178 -18
219 -10 58 -10 89 0 150 7 42 15 145 18 230 5 138 8 156 28 180 43 51 205 321
205 340 0 4 27 33 61 66 59 58 217 247 226 272 3 6 28 20 56 29 70 23 248 96
322 132 33 16 83 32 110 36 89 13 339 77 371 95 1 1 19 -5 41 -13z"/>
<path d="M9525 10545 c-27 -8 -88 -22 -135 -31 -47 -9 -116 -32 -155 -50 -38
-17 -100 -45 -136 -61 -59 -25 -76 -39 -170 -148 -57 -66 -111 -132 -118 -145
-8 -14 -28 -47 -43 -75 -34 -59 -47 -80 -70 -117 -11 -16 -18 -46 -19 -80 0
-29 -6 -95 -13 -146 -9 -74 -9 -114 1 -195 7 -56 12 -122 13 -146 0 -34 11
-61 49 -125 27 -44 62 -104 78 -133 16 -29 54 -78 84 -111 30 -32 75 -83 101
-113 32 -36 63 -60 95 -73 26 -11 86 -37 133 -59 75 -35 121 -48 313 -87 27
-5 52 -12 56 -14 4 -3 41 3 82 13 41 10 103 24 139 31 56 10 106 29 305 115
17 7 35 14 42 16 11 4 223 243 223 252 0 2 31 56 69 118 l68 114 15 150 c14
133 14 167 1 305 -9 85 -20 160 -25 167 -11 13 -78 124 -78 128 0 15 -81 130
-122 175 -29 31 -71 78 -93 104 -22 27 -58 56 -80 66 -155 71 -249 108 -305
120 -36 7 -98 21 -139 31 -86 22 -99 22 -166 4z m155 -49 c30 -7 84 -19 120
-26 36 -7 128 -40 205 -73 l140 -61 98 -115 c57 -67 128 -166 168 -233 62
-104 69 -122 69 -170 1 -29 5 -87 10 -128 15 -116 -5 -342 -35 -400 -63 -124
-129 -222 -215 -321 l-95 -110 -125 -56 c-92 -40 -164 -64 -274 -89 -144 -32
-152 -33 -205 -19 -31 8 -92 21 -136 30 -44 9 -111 31 -150 49 -38 18 -97 43
-130 56 -54 21 -70 36 -160 139 -66 76 -124 156 -167 231 l-67 115 -14 140
c-13 123 -13 158 0 284 l15 143 68 117 c37 64 76 126 86 138 178 205 172 200
252 234 42 17 100 42 127 56 28 13 93 33 145 43 52 11 109 24 125 29 44 13 84
13 145 -3z"/>
<path d="M9550 10320 c-19 -4 -64 -14 -100 -22 -36 -8 -112 -34 -169 -58 -97
-42 -107 -48 -181 -130 -42 -47 -104 -130 -137 -185 l-59 -100 -11 -120 c-16
-168 1 -321 42 -385 16 -25 41 -66 55 -92 24 -43 73 -106 155 -195 46 -50 203
-114 374 -151 75 -16 91 -17 140 -5 31 7 80 18 110 24 29 6 77 21 105 34 28
12 75 33 103 45 70 30 180 151 261 287 61 101 61 103 72 210 11 104 6 249 -10
325 -9 45 -106 210 -152 260 -18 20 -52 58 -74 84 -28 33 -58 55 -90 68 -27
10 -71 29 -99 42 -92 42 -276 78 -335 64z m120 -50 c19 -6 57 -15 85 -21 27
-5 94 -28 148 -51 91 -39 103 -47 171 -122 65 -72 141 -185 172 -256 17 -38
26 -208 18 -325 l-7 -105 -58 -98 c-31 -53 -87 -131 -123 -173 -62 -72 -71
-78 -173 -121 -60 -25 -124 -49 -143 -52 -19 -4 -63 -14 -97 -22 -54 -13 -69
-13 -120 0 -32 8 -75 17 -97 21 -21 3 -85 27 -142 52 -95 42 -109 52 -172 122
-70 77 -166 224 -181 278 -16 55 -22 219 -11 317 10 95 13 104 65 191 49 83
82 125 171 221 36 39 193 107 293 128 41 9 76 18 79 21 9 9 85 6 122 -5z"/>
<path d="M9505 10080 c-124 -31 -193 -69 -256 -141 -31 -35 -73 -93 -94 -129
l-39 -65 0 -145 c0 -132 2 -149 23 -185 44 -79 67 -112 113 -167 39 -45 62
-61 130 -90 176 -75 251 -76 428 -6 61 25 86 42 133 92 89 94 136 182 146 275
19 180 -18 295 -140 429 -44 49 -68 66 -129 91 -77 31 -190 61 -225 60 -11 -1
-51 -9 -90 -19z m276 -150 c54 -10 57 -13 84 -63 15 -29 48 -73 73 -99 l44
-46 -8 -64 c-5 -34 -6 -89 -1 -120 l8 -58 -48 -58 c-26 -31 -59 -78 -72 -104
-23 -43 -28 -46 -75 -53 -28 -3 -80 -20 -116 -36 l-65 -30 -65 29 c-36 17 -88
33 -117 37 -51 7 -53 8 -84 63 -17 32 -50 77 -74 102 l-43 45 9 63 c5 38 5 87
0 120 -8 54 -7 59 20 93 15 20 36 42 44 49 9 8 27 35 41 62 28 55 41 63 109
73 28 4 75 20 105 35 l55 28 60 -29 c33 -16 85 -33 116 -39z"/>
<path d="M9550 9915 c-25 -13 -68 -27 -95 -30 -49 -7 -52 -9 -79 -58 -16 -29
-43 -67 -60 -85 -31 -33 -31 -34 -32 -147 l-1 -114 35 -33 c18 -18 44 -54 57
-79 23 -45 44 -59 89 -59 10 0 45 -12 77 -26 l59 -27 58 26 c31 13 78 28 103
31 43 6 48 10 65 49 10 23 38 63 61 88 l43 46 -10 52 c-6 33 -6 69 0 103 10
52 10 52 -27 90 -20 20 -48 59 -62 85 -25 45 -29 48 -86 58 -33 6 -79 21 -102
33 -23 12 -44 22 -45 22 -2 -1 -23 -12 -48 -25z"/>
<path d="M7669 10178 c-1 -2 -3 -59 -5 -128 -1 -69 -10 -185 -18 -258 -21
-180 -21 -182 8 -182 14 0 28 -4 31 -10 4 -6 -5 -10 -20 -10 -14 0 -28 -7 -31
-15 -3 -8 2 -80 11 -161 9 -80 17 -199 18 -263 2 -121 8 -144 32 -134 21 7 20
204 0 381 -9 73 -13 137 -10 142 5 8 38 16 178 41 38 6 65 15 60 19 -4 4 -57
16 -116 26 -60 10 -113 21 -119 25 -6 4 -6 38 3 105 7 55 13 171 14 259 0 144
-2 160 -17 163 -10 2 -19 2 -19 0z"/>
<path d="M11495 10170 c-10 -16 4 -278 20 -405 8 -55 10 -104 6 -108 -5 -5
-61 -19 -125 -32 -65 -12 -119 -25 -122 -27 -2 -3 52 -15 121 -27 69 -13 127
-27 131 -32 3 -5 0 -35 -6 -66 -6 -32 -15 -138 -22 -236 -11 -187 -6 -233 27
-221 12 5 15 28 15 133 0 69 8 180 16 246 25 184 25 188 -11 196 -30 6 -28 8
19 23 20 7 20 -2 -4 151 -7 39 -15 146 -18 240 -6 147 -9 170 -24 173 -9 2
-19 -2 -23 -8z"/>
<path d="M7703 8934 c-3 -9 7 -30 24 -52 64 -81 153 -221 211 -337 51 -99 52
-100 93 -80 l34 18 -22 -25 c-13 -13 -23 -30 -23 -36 0 -7 33 -47 74 -90 96
-99 201 -224 239 -284 28 -44 58 -61 71 -40 11 18 -125 197 -253 334 -48 51
-70 82 -65 90 5 7 42 48 84 91 68 71 97 108 74 95 -60 -33 -208 -98 -224 -98
-11 0 -23 8 -27 18 -12 31 -106 196 -148 258 -105 153 -128 175 -142 138z"/>
<path d="M11444 8913 c-67 -84 -165 -238 -215 -335 -20 -40 -35 -58 -48 -58
-10 0 -65 23 -121 51 -56 27 -104 49 -106 47 -2 -2 35 -45 81 -95 84 -90 97
-115 72 -130 -31 -19 -218 -238 -279 -328 -34 -49 -35 -65 -5 -65 15 0 29 12
44 38 30 53 111 152 216 266 51 54 95 104 99 110 4 6 -2 21 -14 33 -16 17 -18
23 -7 23 8 0 20 -5 27 -12 14 -14 48 12 58 46 18 55 153 277 221 364 33 41 40
71 17 79 -6 2 -24 -14 -40 -34z"/>
<path d="M9035 7923 c-84 -155 -73 -148 -158 -104 -131 67 -385 158 -412 147
-29 -11 0 -41 55 -55 69 -18 248 -90 350 -140 45 -23 88 -41 95 -41 8 0 21 12
29 28 l15 27 1 -37 c0 -38 9 -45 63 -52 116 -15 303 -59 415 -99 55 -19 64
-20 72 -7 13 21 -4 34 -80 59 -93 30 -305 81 -363 88 -27 3 -51 12 -54 19 -2
6 3 65 12 129 9 65 14 119 11 122 -2 2 -25 -35 -51 -84z"/>
<path d="M10121 7985 c0 -11 6 -63 13 -115 7 -52 9 -102 5 -111 -5 -10 -28
-19 -61 -23 -149 -20 -438 -107 -438 -132 0 -25 28 -27 83 -6 87 35 293 85
401 98 62 8 78 20 71 55 -8 36 2 38 15 4 5 -14 16 -25 25 -25 8 0 66 25 128
55 119 57 325 135 358 135 23 0 36 27 21 42 -19 19 -223 -51 -415 -142 -37
-17 -73 -30 -80 -27 -7 3 -34 47 -61 98 -54 105 -66 122 -65 94z"/>
<path d="M6567 11519 c-70 -8 -136 -32 -202 -75 -137 -88 -214 -248 -202 -416
18 -236 196 -410 433 -425 133 -9 237 27 336 116 102 91 153 208 152 351 0 98
-23 168 -85 260 -92 137 -258 210 -432 189z"/>
<path d="M12512 11518 c-84 -9 -191 -63 -259 -131 -29 -28 -53 -56 -53 -61 0
-5 -7 -17 -16 -27 -32 -36 -64 -150 -64 -235 0 -167 69 -297 210 -391 72 -48
134 -66 240 -69 173 -4 297 60 398 206 54 79 75 160 70 276 -4 92 -8 107 -43
176 -92 185 -272 280 -483 256z"/>
<path d="M6220 10614 c-88 -24 -141 -55 -211 -124 -188 -186 -186 -479 5 -658
78 -73 154 -109 254 -124 254 -35 486 140 522 393 35 249 -134 478 -382 519
-82 13 -121 12 -188 -6z"/>
<path d="M12788 10620 c-113 -18 -241 -105 -307 -208 -73 -116 -92 -269 -47
-392 30 -85 55 -124 117 -187 174 -176 473 -173 649 7 139 141 173 345 87 523
-92 192 -284 291 -499 257z"/>
<path d="M6285 9493 c-135 -15 -265 -95 -337 -205 -48 -75 -68 -132 -75 -215
-22 -275 185 -503 455 -503 313 0 535 294 448 594 -60 204 -282 353 -491 329z"/>
<path d="M12797 9489 c-215 -32 -387 -235 -387 -455 0 -370 401 -589 715 -389
148 94 235 289 204 458 -46 254 -280 424 -532 386z"/>
<path d="M6550 8593 c-207 -34 -370 -211 -387 -422 -28 -362 350 -612 677
-446 171 87 271 287 240 481 -35 218 -214 380 -430 388 -41 2 -86 1 -100 -1z"/>
<path d="M12510 8594 c-58 -11 -149 -49 -200 -85 -66 -46 -110 -101 -152 -189
-57 -117 -50 -280 15 -404 84 -159 264 -257 444 -242 82 6 147 30 226 80 69
45 108 91 155 186 36 74 37 77 37 196 0 118 0 121 -37 195 -20 40 -51 90 -67
110 -40 48 -128 106 -198 130 -54 20 -174 32 -223 23z"/>
<path d="M7158 7660 c-278 -87 -410 -401 -278 -660 61 -119 203 -218 346 -241
85 -14 195 4 278 45 101 50 205 179 236 295 16 61 14 180 -5 246 -70 244 -338
390 -577 315z"/>
<path d="M11807 7669 c-108 -25 -239 -122 -291 -215 -107 -191 -76 -415 76
-566 34 -32 79 -68 101 -80 186 -94 403 -62 548 83 254 254 136 682 -214 775
-58 15 -162 17 -220 3z"/>
<path d="M7990 7119 c-222 -26 -400 -226 -400 -448 0 -133 44 -241 138 -335
96 -97 222 -143 364 -133 202 14 380 176 417 380 12 68 1 182 -25 248 -42 108
-140 210 -247 257 -41 18 -149 45 -166 41 -3 -1 -40 -5 -81 -10z"/>
<path d="M11060 7119 c-25 -5 -74 -23 -110 -41 -287 -141 -351 -518 -124 -740
66 -65 112 -93 193 -118 270 -85 558 105 590 388 18 160 -31 290 -149 399 -42
40 -130 88 -185 101 -62 15 -165 21 -215 11z"/>
<path d="M9056 6769 c-142 -21 -278 -123 -344 -259 -35 -73 -36 -78 -37 -190
0 -90 4 -126 19 -165 111 -285 446 -392 700 -223 61 40 141 139 166 204 128
343 -145 686 -504 633z"/>
<path d="M9960 6761 c-91 -24 -140 -52 -210 -120 -193 -189 -183 -491 21 -675
258 -232 665 -101 753 241 20 76 20 130 1 211 -27 115 -91 207 -193 276 -112
77 -244 100 -372 67z"/>
<path d="M1776 9291 c-27 -44 16 -727 49 -781 7 -12 32 -13 38 -2 3 4 -3 57
-14 117 -21 124 -46 555 -35 599 l7 28 206 -7 c114 -4 216 -11 228 -15 19 -7
20 -17 23 -166 4 -228 34 -461 59 -471 12 -5 97 9 268 42 39 7 112 21 163 31
55 10 96 23 99 31 3 7 -2 73 -11 145 -10 73 -18 194 -20 268 -3 129 -4 135
-25 138 -21 3 -21 0 -21 -130 0 -74 7 -190 15 -258 15 -117 15 -125 -1 -137
-10 -7 -26 -13 -36 -13 -11 0 -65 -9 -121 -20 -56 -11 -139 -27 -185 -36 -54
-11 -87 -13 -93 -7 -17 17 -39 224 -46 429 l-6 202 -141 6 c-78 3 -198 9 -267
12 -88 5 -128 3 -133 -5z"/>
<path d="M2875 8338 c-54 -22 -260 -96 -364 -131 -35 -12 -66 -28 -68 -35 -11
-27 153 -392 246 -550 17 -29 31 -59 31 -66 0 -7 -21 -27 -47 -43 -27 -17
-109 -69 -183 -117 -74 -47 -139 -86 -145 -86 -25 0 -217 365 -291 554 -37 95
-55 119 -75 99 -20 -20 134 -366 255 -573 98 -168 83 -161 196 -88 211 135
345 222 354 229 5 4 -17 51 -48 103 -110 185 -249 497 -230 516 11 11 399 150
418 150 8 0 34 -48 61 -112 26 -62 63 -142 82 -178 99 -183 108 -195 133 -180
13 8 11 17 -13 57 -59 101 -173 339 -198 413 -23 67 -33 70 -114 38z"/>
<path d="M3363 7254 c-8 -22 24 -257 53 -389 13 -60 24 -117 24 -126 0 -20
-16 -26 -200 -79 -80 -23 -157 -46 -172 -52 -14 -5 -37 -8 -50 -6 -21 3 -26
15 -50 112 -37 149 -67 331 -75 440 -3 50 -9 95 -14 100 -5 5 -103 4 -241 -3
-234 -13 -283 -17 -301 -28 -16 -10 21 -335 59 -513 44 -207 64 -270 85 -270
26 0 24 17 -11 157 -34 131 -75 373 -85 504 l-7 86 88 6 c49 4 153 10 231 13
l141 7 7 -59 c17 -144 38 -270 71 -419 36 -163 47 -195 64 -195 12 0 90 22
270 75 69 21 152 45 185 55 38 10 61 23 63 33 2 9 -6 49 -17 89 -26 96 -59
274 -67 368 -7 77 -17 110 -35 110 -5 0 -12 -7 -16 -16z"/>
<path d="M3550 6347 c-36 -17 -135 -64 -220 -105 -85 -41 -165 -78 -177 -83
-13 -5 -23 -16 -23 -24 0 -20 70 -158 122 -240 21 -33 45 -72 53 -87 8 -15 44
-68 80 -117 36 -50 65 -96 64 -103 0 -7 -43 -47 -95 -88 -53 -41 -128 -101
-167 -132 -40 -32 -77 -58 -84 -58 -32 0 -224 290 -344 518 -36 68 -59 101
-69 100 -8 -2 -16 -10 -18 -18 -8 -47 355 -629 414 -663 10 -6 46 17 117 73
232 186 317 255 317 262 0 3 -10 19 -23 35 -110 136 -307 456 -307 498 0 6 42
31 93 55 50 24 138 65 194 92 57 26 109 48 117 48 8 0 40 -46 72 -102 97 -173
206 -328 230 -328 29 0 23 34 -14 79 -51 62 -155 226 -203 321 -21 42 -44 82
-51 88 -9 7 -31 1 -78 -21z"/>
<path d="M17095 9288 c-104 -4 -195 -10 -201 -12 -7 -3 -13 -80 -18 -233 -5
-211 -21 -361 -40 -392 -6 -9 -19 -11 -40 -6 -17 3 -78 15 -136 26 -58 10
-141 26 -184 34 -44 8 -83 18 -88 23 -4 4 -3 35 2 67 15 93 33 382 26 420 -5
25 -12 35 -25 35 -16 0 -19 -15 -24 -177 -3 -98 -13 -222 -22 -277 -9 -54 -13
-102 -8 -106 7 -7 99 -26 412 -82 106 -20 115 -20 126 -4 22 29 54 339 55 518
l0 107 43 6 c23 3 125 7 227 8 l185 2 -1 -205 c-1 -148 -7 -250 -22 -368 -12
-90 -22 -165 -22 -168 0 -2 9 -4 20 -4 22 0 23 2 45 147 27 183 46 592 29 637
-7 18 -28 18 -339 4z"/>
<path d="M16237 8353 c-3 -4 -19 -46 -37 -92 -35 -89 -129 -282 -180 -367 -24
-41 -28 -54 -17 -62 17 -14 29 -5 60 45 35 56 137 260 173 347 15 37 34 70 41
73 12 5 359 -114 406 -139 9 -5 17 -17 17 -28 0 -44 -156 -372 -247 -522 -20
-32 -33 -64 -30 -71 7 -18 428 -287 449 -287 44 0 373 657 354 707 -14 36 -39
2 -90 -122 -82 -202 -244 -511 -273 -522 -7 -3 -68 30 -135 74 -68 43 -151 97
-185 118 -35 22 -63 44 -63 49 0 5 20 43 44 85 87 148 236 478 236 522 0 23 3
21 -147 75 -70 25 -173 61 -228 81 -120 42 -141 48 -148 36z"/>
<path d="M15806 7261 c-3 -5 -10 -49 -15 -98 -14 -122 -37 -251 -67 -362 -20
-76 -22 -97 -12 -106 14 -11 36 -19 153 -54 39 -11 131 -38 206 -61 74 -22
143 -40 152 -40 11 0 20 14 27 43 6 23 18 65 25 92 24 84 62 294 75 410 7 61
16 115 21 120 5 7 47 8 121 3 62 -3 162 -10 222 -13 l109 -7 -6 -92 c-9 -133
-33 -281 -74 -456 -43 -186 -44 -195 -19 -195 22 0 34 39 81 260 44 205 80
525 59 525 -5 1 -34 3 -64 5 -97 9 -384 25 -431 25 l-47 0 -6 -67 c-8 -78 -34
-275 -41 -307 -2 -11 -18 -81 -36 -153 -26 -112 -34 -133 -49 -133 -21 0 -419
116 -428 125 -3 3 7 58 22 123 35 147 66 381 54 405 -9 19 -24 22 -32 8z"/>
<path d="M15582 6373 c-7 -3 -31 -41 -53 -86 -23 -44 -52 -99 -67 -121 -58
-92 -99 -154 -136 -203 -35 -49 -42 -83 -17 -83 27 0 235 313 272 408 10 26
39 29 77 7 15 -8 86 -42 157 -75 72 -34 145 -69 163 -77 29 -14 33 -20 29 -43
-10 -50 -141 -268 -254 -421 -35 -48 -63 -91 -63 -97 0 -5 42 -43 93 -85 201
-164 320 -257 328 -257 16 0 181 231 271 380 71 118 148 269 148 290 0 13 -7
20 -17 20 -12 -1 -31 -27 -58 -82 -52 -105 -146 -263 -216 -363 -108 -156
-123 -175 -136 -175 -8 0 -51 29 -96 65 -176 141 -257 208 -257 214 0 4 28 45
62 92 110 150 258 409 258 451 0 18 -23 31 -280 150 -36 17 -94 45 -130 63
-36 18 -71 30 -78 28z"/>
<path d="M4305 5319 c-12 -18 132 -210 254 -338 34 -35 61 -71 61 -79 0 -8
-33 -49 -74 -91 -40 -42 -109 -114 -153 -160 l-79 -84 -37 32 c-68 60 -252
281 -336 404 -17 26 -36 47 -41 47 -25 0 -444 -282 -448 -301 -8 -45 461 -609
507 -609 7 0 14 7 18 16 4 11 -19 41 -74 97 -180 185 -399 462 -387 490 8 19
363 249 374 242 8 -5 78 -94 183 -233 43 -57 228 -242 242 -242 7 0 30 19 51
43 20 23 101 109 178 190 78 82 142 153 144 158 2 4 -34 48 -80 96 -89 95
-184 209 -236 286 -32 46 -54 58 -67 36z"/>
<path d="M4938 4673 c-8 -10 -55 -76 -103 -148 -49 -71 -110 -161 -137 -200
-26 -38 -48 -77 -48 -86 0 -28 347 -230 527 -307 28 -12 55 -27 58 -32 9 -15
-146 -411 -162 -417 -27 -11 -308 126 -508 246 -82 49 -153 87 -157 85 -37
-23 80 -106 334 -239 131 -68 327 -155 351 -155 16 0 24 17 103 220 84 217
106 279 100 289 -3 4 -27 16 -53 26 -130 49 -521 263 -530 291 -3 10 38 76
186 291 48 69 67 90 80 85 9 -3 57 -31 106 -61 106 -64 327 -171 355 -171 13
0 20 7 20 18 0 14 -19 27 -67 47 -105 45 -271 133 -366 197 -67 44 -69 44 -89
21z"/>
<path d="M5933 4044 c-3 -9 6 -28 24 -47 113 -123 169 -179 250 -249 50 -44
94 -85 96 -92 4 -11 -195 -279 -255 -343 -21 -22 -22 -22 -49 -5 -68 43 -287
252 -398 380 -30 34 -58 62 -64 62 -11 0 -46 -27 -254 -198 -90 -73 -163 -138
-163 -144 0 -38 302 -350 482 -497 66 -53 80 -62 93 -51 20 16 14 23 -91 111
-157 131 -424 401 -424 429 0 5 263 226 337 283 9 7 48 -27 135 -118 137 -143
354 -335 379 -335 23 0 341 417 334 438 -3 9 -33 37 -66 62 -33 25 -123 109
-200 188 -77 78 -144 142 -150 142 -5 0 -12 -7 -16 -16z"/>
<path d="M6632 3438 c-19 -32 -93 -167 -189 -346 -25 -45 -43 -89 -40 -96 12
-29 238 -134 447 -207 124 -44 135 -49 132 -71 -5 -44 -106 -393 -117 -406
-21 -24 -367 104 -601 222 -49 25 -92 42 -96 40 -4 -3 -8 -13 -8 -23 0 -34
344 -187 618 -276 113 -36 122 -34 143 40 57 199 111 400 116 428 l5 32 -104
33 c-213 69 -463 178 -474 207 -3 7 13 45 35 84 23 38 41 72 41 74 0 3 21 43
48 89 26 46 53 96 60 111 6 15 19 30 27 33 8 4 70 -19 138 -49 145 -66 332
-131 353 -123 33 13 9 39 -51 57 -56 16 -117 38 -242 88 -28 11 -81 36 -118
56 -37 19 -75 35 -85 35 -10 0 -27 -15 -38 -32z"/>
<path d="M14841 5292 c-50 -78 -155 -202 -278 -330 -24 -24 -43 -49 -43 -56 0
-12 22 -36 227 -253 75 -79 141 -143 147 -143 27 0 239 235 351 388 43 60 72
91 81 88 39 -15 364 -239 364 -251 0 -32 -226 -316 -370 -464 -90 -94 -99
-106 -85 -120 13 -14 21 -9 76 44 62 61 212 230 284 320 49 60 165 227 165
237 0 8 -399 273 -436 290 -13 6 -25 9 -27 7 -159 -220 -213 -287 -319 -396
-69 -72 -82 -81 -97 -70 -22 16 -295 306 -299 318 -2 5 31 46 74 92 124 132
244 290 244 321 0 29 -35 16 -59 -22z"/>
<path d="M14140 4629 c-81 -52 -291 -162 -370 -194 -14 -5 -26 -19 -28 -29 -4
-16 1 -18 31 -13 41 6 253 112 376 186 81 49 86 51 102 34 10 -10 70 -96 134
-191 l116 -174 -24 -19 c-72 -56 -360 -211 -492 -265 -63 -26 -79 -36 -77 -51
7 -41 187 -486 199 -490 25 -10 410 168 495 228 14 11 29 19 32 19 11 0 176
111 176 118 0 4 -4 13 -9 21 -8 12 -22 6 -78 -29 -158 -100 -155 -99 -359
-200 -99 -49 -194 -92 -210 -96 l-30 -6 -80 204 c-43 111 -79 207 -79 212 0
10 13 18 80 47 139 59 417 214 489 272 l30 24 -20 31 c-10 18 -61 94 -113 169
-52 76 -112 164 -134 196 -21 31 -44 57 -50 57 -7 0 -55 -28 -107 -61z"/>
<path d="M13152 3961 c-50 -54 -143 -143 -207 -197 -65 -55 -113 -104 -111
-111 3 -7 43 -61 90 -120 47 -59 118 -151 159 -203 41 -53 80 -95 90 -95 34 0
293 232 451 403 26 29 52 52 56 50 19 -7 340 -279 340 -288 0 -28 -283 -316
-438 -445 -76 -63 -95 -92 -66 -102 16 -5 196 148 325 276 119 119 249 265
249 278 -1 15 -405 343 -422 343 -6 0 -29 -21 -51 -47 -130 -151 -417 -418
-441 -410 -15 5 -276 347 -276 361 0 7 30 37 68 68 72 61 261 248 288 286 15
22 13 52 -4 52 -5 0 -50 -44 -100 -99z"/>
<path d="M12402 3413 c-62 -30 -170 -75 -240 -98 -83 -29 -128 -49 -130 -59
-2 -9 3 -18 11 -21 26 -11 246 70 408 150 37 18 71 30 77 26 5 -3 21 -26 35
-51 116 -210 177 -326 177 -339 0 -30 -225 -131 -457 -207 -59 -20 -111 -39
-116 -43 -4 -4 9 -68 29 -142 20 -74 51 -187 69 -253 18 -65 38 -122 45 -126
14 -9 269 71 395 125 146 62 333 153 340 166 4 5 1 16 -5 24 -10 12 -25 7 -98
-30 -203 -102 -565 -241 -597 -228 -8 3 -20 24 -26 47 -5 22 -28 104 -50 181
-22 77 -41 155 -42 174 l-2 33 148 54 c169 61 186 68 324 136 100 50 122 69
104 92 -4 6 -39 67 -76 136 -38 69 -86 157 -107 195 -21 39 -44 80 -50 93 -16
32 -39 27 -166 -35z"/>
<path d="M7833 3034 c-9 -23 2 -29 127 -68 132 -40 221 -61 302 -71 32 -4 62
-12 67 -19 12 -14 -41 -432 -57 -448 -8 -8 -29 -7 -79 2 -123 22 -306 68 -415
104 -59 20 -111 36 -117 36 -5 0 -13 -10 -16 -22 -4 -13 -24 -68 -45 -123 -21
-55 -58 -155 -84 -223 -25 -68 -46 -129 -46 -137 0 -12 114 -54 295 -108 135
-40 458 -102 476 -91 5 3 9 13 9 23 0 15 -11 20 -57 26 -216 26 -663 147 -663
180 0 12 52 156 117 323 20 50 41 92 48 92 6 0 52 -13 101 -29 212 -70 503
-127 518 -102 4 5 22 126 41 268 32 239 33 259 18 271 -9 6 -27 12 -40 12 -13
0 -43 4 -66 9 -23 5 -69 15 -102 22 -77 15 -219 55 -268 74 -47 19 -56 19 -64
-1z"/>
<path d="M11320 3041 c-33 -19 -272 -81 -390 -101 -115 -20 -110 -17 -110 -51
0 -36 58 -487 65 -508 4 -10 18 -12 63 -6 127 15 335 64 472 110 40 14 80 25
87 25 16 0 31 -34 107 -242 32 -87 56 -165 54 -174 -2 -9 -21 -23 -43 -31 -83
-29 -274 -82 -370 -102 -55 -12 -118 -26 -140 -31 -22 -5 -66 -12 -98 -15 -62
-8 -77 -19 -55 -41 11 -12 25 -13 64 -5 27 5 92 17 144 26 89 16 205 43 275
64 152 45 272 86 283 96 11 10 6 30 -26 111 -22 54 -43 110 -47 124 -19 63
-108 280 -115 280 -4 0 -57 -16 -116 -36 -186 -60 -478 -125 -493 -108 -11 12
-65 440 -56 453 3 6 18 11 33 11 74 1 421 93 459 122 30 23 -12 49 -47 29z"/>
<path d="M9205 2960 c-81 -20 -302 -49 -390 -51 -102 -3 -96 14 -90 -247 7
-265 11 -311 31 -319 37 -14 546 49 620 77 31 12 50 4 58 -23 29 -102 106
-411 103 -413 -7 -7 -130 -36 -232 -53 -122 -22 -262 -38 -405 -49 -90 -7 -95
-8 -98 -30 l-4 -24 89 7 c170 12 359 37 498 65 208 43 200 40 198 86 -2 40
-115 480 -127 491 -3 3 -61 -6 -128 -20 -237 -51 -533 -81 -543 -56 -2 8 -6
113 -7 234 l-3 220 130 12 c156 15 386 59 397 76 10 16 4 32 -13 34 -8 0 -46
-7 -84 -17z"/>
<path d="M9904 2965 c-4 -9 -3 -20 2 -24 24 -22 249 -61 444 -77 41 -3 78 -8
81 -9 7 -5 1 -362 -7 -424 l-6 -44 -96 7 c-128 9 -357 42 -460 66 -113 27
-119 26 -127 -12 -4 -18 -34 -133 -66 -256 -33 -123 -59 -227 -59 -232 0 -31
405 -103 701 -125 82 -6 87 -5 92 15 7 26 11 25 -163 39 -155 13 -296 32 -419
57 -125 25 -151 34 -151 50 0 31 102 410 113 421 9 9 26 9 72 -2 33 -8 74 -17
90 -19 17 -3 71 -12 122 -20 131 -21 383 -40 393 -30 5 5 12 130 16 277 6 225
5 270 -7 278 -8 5 -42 9 -76 9 -99 0 -331 33 -455 65 -21 5 -29 3 -34 -10z"/>
<path d="M5055 17876 c-38 -17 -79 -58 -95 -96 -32 -78 46 -208 180 -297 66
-45 189 -105 200 -98 15 9 12 123 -6 216 -42 221 -153 330 -279 275z"/>
<path d="M14009 17867 c-47 -31 -91 -101 -118 -184 -25 -76 -45 -281 -29 -298
6 -6 36 4 86 30 236 120 353 286 279 396 -50 74 -152 100 -218 56z"/>
<path d="M3192 16524 c-46 -23 -90 -77 -98 -119 -21 -113 128 -255 346 -331
38 -14 69 -19 74 -14 13 13 -10 149 -40 240 -59 182 -178 277 -282 224z"/>
<path d="M15873 16515 c-72 -44 -137 -162 -168 -311 -15 -68 -20 -154 -10
-154 20 0 141 48 198 77 184 97 262 235 191 335 -55 78 -135 98 -211 53z"/>
<path d="M1114 13681 c-65 -39 -99 -136 -71 -203 34 -82 141 -123 312 -121
112 2 216 20 222 39 2 5 -18 38 -44 72 -138 178 -323 272 -419 213z"/>
<path d="M17945 13687 c-98 -39 -198 -121 -281 -230 -35 -46 -43 -62 -32 -68
29 -18 128 -33 228 -33 136 0 206 21 268 80 44 43 44 43 40 103 -5 66 -33 118
-79 145 -31 18 -101 20 -144 3z"/>
<path d="M415 11501 c-60 -26 -104 -116 -91 -185 25 -133 239 -176 499 -99 31
9 57 22 57 28 0 14 -101 119 -155 161 -73 57 -164 96 -230 100 -33 2 -69 0
-80 -5z"/>
<path d="M18618 11486 c-31 -13 -78 -39 -105 -57 -64 -44 -197 -175 -190 -186
4 -6 41 -21 84 -34 65 -20 100 -24 208 -24 117 0 135 2 178 24 62 30 87 70 87
136 -1 138 -117 201 -262 141z"/>
<path d="M489 8010 c-59 -10 -125 -44 -145 -75 -27 -42 -29 -104 -4 -157 31
-68 51 -82 123 -86 72 -4 121 10 203 59 72 44 216 177 212 197 -3 17 -62 37
-168 57 -82 16 -149 17 -221 5z"/>
<path d="M18500 8009 c-30 -5 -83 -19 -118 -30 l-63 -21 16 -25 c41 -62 157
-159 245 -204 51 -26 80 -34 136 -37 67 -4 73 -2 106 26 43 38 63 95 55 158
-4 39 -12 55 -40 80 -19 18 -52 38 -74 44 -54 15 -198 21 -263 9z"/>
<path d="M1175 5820 c-78 -25 -134 -80 -142 -138 -7 -54 33 -139 77 -165 76
-45 203 -6 321 101 58 53 149 163 149 182 0 18 -77 31 -210 36 -115 4 -144 1
-195 -16z"/>
<path d="M17700 5827 c-83 -18 -85 -21 -48 -75 18 -26 60 -73 93 -106 177
-173 339 -198 404 -63 47 97 17 173 -86 223 -53 25 -70 28 -183 30 -69 1 -150
-3 -180 -9z"/>
<path d="M3433 3120 c-148 -53 -285 -155 -327 -244 -33 -69 -3 -152 69 -195
104 -63 200 -9 276 152 29 63 69 222 69 280 0 32 -13 34 -87 7z"/>
<path d="M15689 3128 c-5 -60 29 -212 66 -293 79 -176 193 -227 298 -135 58
51 71 95 49 162 -29 91 -168 201 -320 255 -77 26 -92 28 -93 11z"/>
<path d="M5245 1774 c-204 -106 -323 -258 -283 -362 30 -78 149 -133 216 -98
40 20 93 88 119 151 28 65 53 201 53 281 0 78 -6 80 -105 28z"/>
<path d="M13859 1803 c-1 -5 0 -44 1 -88 4 -196 72 -356 169 -399 48 -22 91
-16 148 20 156 102 54 302 -224 443 -61 30 -92 38 -94 24z"/>
<path d="M10721 787 c-24 -30 -81 -150 -101 -213 -47 -152 -33 -268 38 -322
71 -54 195 -28 235 48 15 29 18 50 13 124 -4 80 -10 99 -49 181 -37 76 -111
195 -122 195 -1 0 -8 -6 -14 -13z"/>
<path d="M8433 752 c-17 -21 -49 -74 -71 -118 -116 -230 -89 -388 70 -410 70
-10 129 21 158 81 20 41 22 57 17 133 -6 109 -62 267 -120 340 -14 18 -21 15
-54 -26z"/>
</g>
</svg>
